<svg width="36" height="36" fill="none" xmlns="http://www.w3.org/2000/svg"><path d="M29.25 4.5h-3.375V3.375a1.125 1.125 0 1 0-2.25 0V4.5h-11.25V3.375a1.125 1.125 0 1 0-2.25 0V4.5H6.75A2.25 2.25 0 0 0 4.5 6.75v22.5a2.25 2.25 0 0 0 2.25 2.25h22.5a2.25 2.25 0 0 0 2.25-2.25V6.75a2.25 2.25 0 0 0-2.25-2.25Zm-5.414 14.316-6.567 6.187a1.084 1.084 0 0 1-.774.31 1.11 1.11 0 0 1-.773-.31l-3.558-3.375a1.125 1.125 0 1 1 1.547-1.631l2.784 2.644 5.794-5.457a1.109 1.109 0 0 1 1.59.043 1.125 1.125 0 0 1-.043 1.589Zm5.414-7.566H6.75v-4.5h3.375v1.125a1.125 1.125 0 1 0 2.25 0V6.75h11.25v1.125a1.125 1.125 0 1 0 2.25 0V6.75h3.375v4.5Z" fill="#584024"/></svg>