<svg width="36" height="36" fill="none" xmlns="http://www.w3.org/2000/svg"><path d="M9 19.688a1.11 1.11 0 0 1-1.125 1.125H1.688a1.153 1.153 0 0 1-1.013-.62 1.153 1.153 0 0 1 .113-1.18A9.534 9.534 0 0 1 4.64 15.96a5.625 5.625 0 1 1 9.323-5.203 1.139 1.139 0 0 1-.534 1.181 9.042 9.042 0 0 0-3.91 4.753A8.662 8.662 0 0 0 9 19.687Zm26.212-.675a9.534 9.534 0 0 0-3.853-3.052 5.626 5.626 0 1 0-9.323-5.203 1.139 1.139 0 0 0 .534 1.181 9 9 0 0 1 3.91 4.753c.348.96.524 1.974.52 2.995a1.114 1.114 0 0 0 1.125 1.125h6.188a1.124 1.124 0 0 0 .9-1.8Zm-13.106 6.032a6.75 6.75 0 1 0-8.212 0 10.139 10.139 0 0 0-5.006 4.838 1.097 1.097 0 0 0 .07 1.083 1.097 1.097 0 0 0 .942.534h16.2a1.097 1.097 0 0 0 .942-.534 1.098 1.098 0 0 0 .07-1.083 10.139 10.139 0 0 0-5.006-4.838Z" fill="#584024"/></svg>