<svg width="24" height="24" fill="none" xmlns="http://www.w3.org/2000/svg"><path fill-rule="evenodd" clip-rule="evenodd" d="M5 2a3 3 0 0 0-3 3v14a3 3 0 0 0 3 3h14a3 3 0 0 0 3-3V5a3 3 0 0 0-3-3H5Zm.608 4.23a1.368 1.368 0 1 1 1.52 2.276 1.368 1.368 0 0 1-1.52-2.275Zm3.919.375c.202-.202.476-.316.763-.316h8.263a1.079 1.079 0 0 1 0 2.158h-8.264a1.079 1.079 0 0 1-.762-1.842Zm-3.158 4.027a1.368 1.368 0 1 0 0 2.736 1.368 1.368 0 0 0 0-2.736Zm3.158.605c.202-.202.476-.316.763-.316h8.263a1.079 1.079 0 1 1 0 2.158h-8.264a1.079 1.079 0 0 1-.762-1.842Zm-3.158 4.026a1.368 1.368 0 1 0 0 2.736 1.368 1.368 0 0 0 0-2.736Zm3.158.606a1.08 1.08 0 0 1 .763-.316h8.263a1.08 1.08 0 0 1 0 2.157h-8.264a1.079 1.079 0 0 1-.762-1.841Z" fill="#584024"/></svg>