<svg width="24"
		 height="24"
		 fill="none"
		 xmlns="http://www.w3.org/2000/svg">
	<path fill-rule="evenodd"
				clip-rule="evenodd"
				d="M5 2a3 3 0 0 0-3 3v14a3 3 0 0 0 3 3h14a3 3 0 0 0 3-3V5a3 3 0 0 0-3-3H5Zm8.003 4.67a1.51 1.51 0 0 0 .188 1.899 1.495 1.495 0 0 0 2.444-.487 1.51 1.51 0 0 0-.324-1.64 1.498 1.498 0 0 0-2.308.227Zm6.749 10.557a.506.506 0 0 0 .185-.184.522.522 0 0 0-.006-.508l-3.569-6.049a1.008 1.008 0 0 0-1.357-.359c-.152.086-.278.21-.367.36l-1.631 2.766-2.644-4.511a1.002 1.002 0 0 0-1.36-.363 1.002 1.002 0 0 0-.365.363L4.07 16.535a.497.497 0 0 0 0 .508.489.489 0 0 0 .431.251H19.5a.504.504 0 0 0 .252-.067ZM9.5 9.25l1.48 2.523H8.02L9.501 9.25Z"
				fill="#fff7f0" />
</svg>
