<svg width="36" height="36" fill="none" xmlns="http://www.w3.org/2000/svg"><path d="M21.79 10.877a1.122 1.122 0 0 1 1.122-1.122h10.466a1.122 1.122 0 1 1 0 2.244H22.912a1.123 1.123 0 0 1-1.122-1.122Zm11.588 5.61H22.912a1.122 1.122 0 1 0 0 2.245h10.466a1.122 1.122 0 1 0 0-2.244Zm0 6.734h-7.1a1.123 1.123 0 0 0 0 2.244h7.1a1.122 1.122 0 1 0 0-2.244Zm-16.484-3.633a6.733 6.733 0 1 0-8.164 0 10.1 10.1 0 0 0-5.695 6.719 1.136 1.136 0 0 0 .197.968 1.094 1.094 0 0 0 .883.434H21.51a1.093 1.093 0 0 0 .884-.434 1.137 1.137 0 0 0 .196-.968 10.099 10.099 0 0 0-5.695-6.72Z" fill="#584024"/></svg>