<svg width="80" height="90" fill="none" xmlns="http://www.w3.org/2000/svg"><g clip-path="url(#a)" fill="#584024"><path d="M45.3 0H34.7C15.535 0 0 14.097 0 31.486v26.793c0 17.389 15.536 31.485 34.7 31.485h10.6c19.165 0 34.7-14.096 34.7-31.486V31.486C80 14.097 64.465 0 45.3 0Zm-6.586 11.28a1.286 1.286 0 0 1 2.57 0v2.488a1.286 1.286 0 1 1-2.57.001V11.28ZM17.483 39.186c.722-3.178 2.3-7.685 5.718-11.103 3.42-3.415 7.925-4.997 11.1-5.718a1.287 1.287 0 0 1 1.54.969 1.28 1.28 0 0 1-.966 1.537c-2.85.65-6.873 2.048-9.856 5.029-2.985 2.986-4.38 7.008-5.031 9.858a1.282 1.282 0 0 1-1.537.968 1.29 1.29 0 0 1-.968-1.54Zm-8.593 6.98H6.398a1.288 1.288 0 0 1-1.285-1.286c0-.704.577-1.283 1.285-1.283H8.89c.705 0 1.284.577 1.284 1.283 0 .71-.58 1.287-1.284 1.287Zm26.953 20.265a1.288 1.288 0 0 1-1.537.97c-3.18-.722-7.684-2.3-11.105-5.716-3.418-3.42-4.997-7.925-5.718-11.104a1.285 1.285 0 1 1 2.505-.573c.648 2.85 2.046 6.87 5.031 9.856 2.982 2.984 7.006 4.383 9.856 5.03a1.28 1.28 0 0 1 .968 1.537Zm5.442 12.053a1.284 1.284 0 1 1-2.571 0v-2.488a1.286 1.286 0 0 1 2.57 0v2.488Zm-1.286-15.758a2.193 2.193 0 0 1-2.117-1.657c-.968-3.845-2.607-6.94-4.868-9.202-2.26-2.261-5.358-3.9-9.203-4.871a2.184 2.184 0 0 1-1.654-2.117c0-.996.681-1.867 1.654-2.112 3.845-.973 6.943-2.612 9.203-4.873 2.26-2.264 3.9-5.356 4.868-9.202A2.189 2.189 0 0 1 40 27.037c.997 0 1.87.68 2.117 1.655.97 3.847 2.61 6.938 4.873 9.202 2.26 2.261 5.357 3.902 9.205 4.873a2.187 2.187 0 0 1 1.65 2.112c0 1-.682 1.871-1.655 2.117-3.843.971-6.94 2.61-9.2 4.87-2.263 2.264-3.903 5.358-4.873 9.203A2.184 2.184 0 0 1 40 62.726Zm22.517-12.147c-.723 3.178-2.298 7.68-5.715 11.103-3.416 3.417-7.925 4.997-11.105 5.716a1.288 1.288 0 0 1-1.537-.97 1.28 1.28 0 0 1 .966-1.535c2.853-.65 6.872-2.05 9.857-5.033 2.983-2.983 4.385-7.007 5.031-9.856a1.283 1.283 0 1 1 2.503.575Zm-.97-9.854a1.283 1.283 0 0 1-1.535-.968c-.646-2.848-2.048-6.87-5.03-9.856-2.983-2.985-7.004-4.382-9.857-5.031a1.281 1.281 0 0 1-.967-1.538 1.29 1.29 0 0 1 1.537-.969c3.181.723 7.688 2.303 11.106 5.719 3.417 3.42 4.995 7.925 5.715 11.103a1.279 1.279 0 0 1-.968 1.54Zm12.057 5.442h-2.49a1.287 1.287 0 0 1-1.283-1.287c0-.704.576-1.283 1.284-1.283h2.49c.707 0 1.285.577 1.285 1.283a1.287 1.287 0 0 1-1.286 1.287Z"/><path d="M40 39.233a5.654 5.654 0 0 0-5.648 5.647 5.656 5.656 0 0 0 5.647 5.652 5.658 5.658 0 0 0 5.65-5.652A5.654 5.654 0 0 0 40 39.233Zm0 8.727a3.083 3.083 0 0 1-3.078-3.081A3.083 3.083 0 0 1 40 41.8a3.08 3.08 0 0 1 0 6.16Z"/></g><defs><clipPath id="a"><path fill="#fff" d="M0 0h80v89.765H0z"/></clipPath></defs></svg>