<svg width="469" height="104" fill="none" xmlns="http://www.w3.org/2000/svg"><path d="M38.25 36.376c-.704-.64-.736-1.184-.096-1.632.32-.256.672-.48 1.056-.672.448-.192.864-.352 1.248-.48 4.8-1.792 9.472-3.744 14.016-5.856 4.608-2.176 9.12-4.48 13.536-6.912a117.296 117.296 0 0 0 7.68-4.704 65.493 65.493 0 0 0 7.104-5.472c.768-.64 1.472-1.28 2.112-1.92l2.112-2.112a13.51 13.51 0 0 0 1.152-1.728c.128-.32.128-.64 0-.96-.064-.384-.256-.64-.576-.768l-1.152-.384a7.58 7.58 0 0 0-1.152-.288 22.233 22.233 0 0 0-4.128 0c-1.344.128-2.72.288-4.128.48-4.352.704-8.64 1.632-12.864 2.784a184.68 184.68 0 0 0-12.48 3.744c-4.16 1.472-8.192 2.912-12.096 4.32a283.342 283.342 0 0 1-8.448 20.832 1305.31 1305.31 0 0 0-9.216 20.64c.576-.128.992-.224 1.248-.288l.96-.384a86.137 86.137 0 0 1 3.648-1.44c1.216-.448 2.464-.896 3.744-1.344a8.814 8.814 0 0 1 2.208-.672c.832-.128 1.6-.32 2.304-.576a289.37 289.37 0 0 1 9.312-2.496 115.75 115.75 0 0 1 9.6-1.92 90.494 90.494 0 0 1 5.376-.768c1.792-.192 3.616-.256 5.472-.192 1.216.064 2.304.32 3.264.768a11.494 11.494 0 0 1 2.88 1.824c.704.704.576 1.28-.384 1.728a.852.852 0 0 0-.384-.096c-.064 0-.16-.064-.288-.192-1.024-.896-2.144-1.504-3.36-1.824-1.152-.384-2.4-.512-3.744-.384-2.24.128-4.48.352-6.72.672-2.24.32-4.48.736-6.72 1.248-4.8.96-9.632 2.208-14.496 3.744a211.115 211.115 0 0 0-5.952 1.824c-1.92.64-3.84 1.312-5.76 2.016a4.43 4.43 0 0 0-1.248.576c-.384.192-.8.384-1.248.576.128 1.344.224 2.656.288 3.936l.384 3.84c.384 3.328.576 6.624.576 9.888a67.46 67.46 0 0 1-.768 10.08c-.448 3.328-1.536 6.464-3.264 9.408-.32.512-.672 1.024-1.056 1.536l-1.152 1.536c-.64.768-1.376 1.28-2.208 1.536-.768.256-1.6.416-2.496.48-.832.128-1.568-.032-2.208-.48a4.513 4.513 0 0 1-1.344-1.728 11.276 11.276 0 0 1-.864-3.36 14.6 14.6 0 0 1 .096-3.744 39.46 39.46 0 0 1 .768-3.552 79.669 79.669 0 0 1 2.304-7.872c.96-2.56 1.952-5.152 2.976-7.776.64-1.664 1.28-3.296 1.92-4.896.704-1.6 1.408-3.232 2.112-4.896.128-.32.256-.672.384-1.056.192-.384.352-.736.48-1.056-.32-.32-.576-.416-.768-.288a9.223 9.223 0 0 1-.672.192l-1.728.768c-.576.256-1.12.512-1.632.768-.448-.256-.672-.512-.672-.768.064-.256.192-.512.384-.768s.608-.512 1.248-.768a85.283 85.283 0 0 0 2.4-1.152c.832-.384 1.728-.8 2.688-1.248l1.44-2.88c.512-1.024 1.024-2.08 1.536-3.168 2.112-4.928 4.224-9.792 6.336-14.592l6.336-14.592c.32-.768.608-1.536.864-2.304.32-.832.64-1.632.96-2.4.064-.128.096-.288.096-.48s.032-.384.096-.576c-.384-.192-.704-.224-.96-.096-.256.064-.544.16-.864.288a826.265 826.265 0 0 0-11.136 4.704c-3.648 1.536-7.36 3.104-11.136 4.704a58.753 58.753 0 0 1-3.552 1.44c-1.152.448-2.336.896-3.552 1.344a12.15 12.15 0 0 1-1.632.48l-1.536.192c-.704.064-1.248-.096-1.632-.48-.384-.384-.544-.928-.48-1.632 0-.96.192-1.824.576-2.592 1.664-4.224 4.064-7.904 7.2-11.04a8.23 8.23 0 0 1 1.056-1.056c.384-.384.896-.544 1.536-.48.256.32.32.608.192.864-.064.192-.16.352-.288.48-.192.256-.416.48-.672.672-.192.128-.416.288-.672.48a26.782 26.782 0 0 0-4.224 5.184 41.072 41.072 0 0 0-3.072 5.76c-.192.32-.288.608-.288.864v.576c.384.384.768.576 1.152.576.448-.064.896-.16 1.344-.288.896-.32 1.76-.64 2.592-.96.832-.32 1.696-.64 2.592-.96 3.52-1.472 7.008-2.944 10.464-4.416 3.456-1.472 6.944-2.944 10.464-4.416A334.322 334.322 0 0 1 46.41 9.4a184.938 184.938 0 0 1 15.936-5.088A229.764 229.764 0 0 1 71.37 2.2 73.31 73.31 0 0 1 80.49.664a28.744 28.744 0 0 1 3.36-.192c1.152 0 2.272.16 3.36.48 2.432.768 3.136 2.24 2.112 4.416a11.588 11.588 0 0 1-2.496 3.648l-3.264 3.072a70.447 70.447 0 0 1-3.36 2.784 72.14 72.14 0 0 1-7.392 5.088 129.351 129.351 0 0 1-7.776 4.416 206.344 206.344 0 0 1-11.904 5.952 149.869 149.869 0 0 1-12.288 5.088c-.448.128-.896.288-1.344.48-.448.192-.864.352-1.248.48ZM20.298 59.704l-.576.864a4.696 4.696 0 0 0-.288.48 549.073 549.073 0 0 0-4.8 11.424 138.542 138.542 0 0 0-4.128 11.616 46.074 46.074 0 0 0-.96 3.744 93.302 93.302 0 0 1-.672 3.744 8.643 8.643 0 0 0-.096 2.208c.128.768.32 1.504.576 2.208.32.896.832 1.504 1.536 1.824.704.384 1.504.416 2.4.096 1.088-.32 1.984-.832 2.688-1.536a11.308 11.308 0 0 0 1.824-2.4c1.792-3.008 2.88-6.336 3.264-9.984.576-4.16.704-8.48.384-12.96-.128-1.856-.288-3.68-.48-5.472a277.607 277.607 0 0 0-.672-5.856Zm77.055-7.296a101.753 101.753 0 0 1 3.264-3.84c1.088-1.28 2.24-2.592 3.456-3.936l.768-.96c.256-.32.736-.416 1.44-.288l-.384.96c-.064.256-.192.48-.384.672a137.975 137.975 0 0 1-2.784 3.648c-.96 1.152-1.92 2.272-2.88 3.36l-1.536 1.824h-.096L93.8 58.744a129.975 129.975 0 0 1-5.088 5.184L83.72 68.92a17.054 17.054 0 0 1-2.208 1.536c-.768.448-1.632.736-2.592.864-1.28.32-2.208.224-2.784-.288-.512-.448-.736-1.312-.672-2.592.064-1.088.192-2.176.384-3.264.192-1.152.416-2.272.672-3.36.192-.896.416-1.76.672-2.592l.768-2.496.768-2.88c.32-.96.608-1.888.864-2.784.192-.96.224-2.016.096-3.168 0-1.28-.704-2.24-2.112-2.88a6.808 6.808 0 0 0-.864-.288 11.444 11.444 0 0 0-.864-.384c-2.56-.96-3.296-2.72-2.208-5.28.32-.128.512-.096.576.096a.651.651 0 0 1 .192.48c.064 1.024.352 1.76.864 2.208.512.448 1.248.832 2.208 1.152 1.408.448 2.368 1.056 2.88 1.824s.768 1.888.768 3.36a11.417 11.417 0 0 1-.384 3.648 51.54 51.54 0 0 1-1.056 3.36 75.654 75.654 0 0 0-1.728 5.76 97.51 97.51 0 0 0-1.152 5.952c-.192.896-.064 1.792.384 2.688 1.728.192 3.36-.32 4.896-1.536a51.35 51.35 0 0 0 1.728-1.44c.576-.448 1.12-.96 1.632-1.536a278.046 278.046 0 0 0 6.144-6.144c2.048-2.048 4-4.16 5.856-6.336l-.096-.192Zm29.908-9.12c0 .32.032.576.096.768.064.192.064.352 0 .48-.128.32-.288.608-.48.864-.128.256-.32.48-.576.672a192.662 192.662 0 0 1-6.624 5.856 75.576 75.576 0 0 1-3.552 2.784 40.443 40.443 0 0 1-3.456 2.304c-.832.448-1.664.864-2.496 1.248-.768.384-1.568.832-2.4 1.344-1.344.576-2.656.832-3.936.768-.896-.064-1.664-.352-2.304-.864a3.378 3.378 0 0 1-1.248-2.208v-1.728a8.682 8.682 0 0 1 0-1.824c.256-1.792.704-3.52 1.344-5.184.64-1.664 1.6-3.2 2.88-4.608 1.728-1.6 3.648-2.368 5.76-2.304.32 0 .8.064 1.44.192 1.344.64 1.792 1.6 1.344 2.88a33.71 33.71 0 0 1-.576 1.44 3.632 3.632 0 0 1-.768 1.152c-2.368 3.136-5.472 5.44-9.312 6.912l-.768.384v.864a1.962 1.962 0 0 0 0 .864c.064.64.352 1.184.864 1.632.448.384.992.512 1.632.384.64-.064 1.248-.128 1.824-.192.64-.128 1.28-.32 1.92-.576a59.812 59.812 0 0 0 4.512-2.304 47.214 47.214 0 0 0 4.32-2.976c.64-.512 1.376-1.12 2.208-1.824a94.284 94.284 0 0 1 2.592-2.304 535.22 535.22 0 0 1 2.592-2.208 42.213 42.213 0 0 1 2.208-1.92l.96-.768Zm-25.344 8.928H102.589c.064-.064.16-.096.288-.096 2.752-1.152 5.152-2.848 7.2-5.088.256-.32.512-.608.768-.864s.48-.576.672-.96c.32-.448.384-.832.192-1.152-.128-.32-.448-.512-.96-.576a2.424 2.424 0 0 0-.96 0c-.32 0-.64.032-.96.096-1.28.32-2.368.896-3.264 1.728a10.92 10.92 0 0 0-2.304 2.784c-.32.64-.608 1.312-.864 2.016a8.385 8.385 0 0 0-.48 2.112Zm46.719-8.928c0 .32.032.576.096.768.064.192.064.352 0 .48-.128.32-.288.608-.48.864-.128.256-.32.48-.576.672a192.662 192.662 0 0 1-6.624 5.856 75.576 75.576 0 0 1-3.552 2.784 40.443 40.443 0 0 1-3.456 2.304c-.832.448-1.664.864-2.496 1.248-.768.384-1.568.832-2.4 1.344-1.344.576-2.656.832-3.936.768-.896-.064-1.664-.352-2.304-.864a3.378 3.378 0 0 1-1.248-2.208v-1.728a8.682 8.682 0 0 1 0-1.824c.256-1.792.704-3.52 1.344-5.184.64-1.664 1.6-3.2 2.88-4.608 1.728-1.6 3.648-2.368 5.76-2.304.32 0 .8.064 1.44.192 1.344.64 1.792 1.6 1.344 2.88a33.71 33.71 0 0 1-.576 1.44 3.632 3.632 0 0 1-.768 1.152c-2.368 3.136-5.472 5.44-9.312 6.912l-.768.384v.864a1.962 1.962 0 0 0 0 .864c.064.64.352 1.184.864 1.632.448.384.992.512 1.632.384.64-.064 1.248-.128 1.824-.192.64-.128 1.28-.32 1.92-.576a59.812 59.812 0 0 0 4.512-2.304 47.214 47.214 0 0 0 4.32-2.976c.64-.512 1.376-1.12 2.208-1.824a94.284 94.284 0 0 1 2.592-2.304 535.22 535.22 0 0 1 2.592-2.208 42.213 42.213 0 0 1 2.208-1.92l.96-.768Zm-25.344 8.928H123.964c.064-.064.16-.096.288-.096 2.752-1.152 5.152-2.848 7.2-5.088.256-.32.512-.608.768-.864s.48-.576.672-.96c.32-.448.384-.832.192-1.152-.128-.32-.448-.512-.96-.576a2.424 2.424 0 0 0-.96 0c-.32 0-.64.032-.96.096-1.28.32-2.368.896-3.264 1.728a10.92 10.92 0 0 0-2.304 2.784c-.32.64-.608 1.312-.864 2.016a8.385 8.385 0 0 0-.48 2.112Zm62.538 3.456-1.056 1.056a86.634 86.634 0 0 0-2.496 2.4 94.284 94.284 0 0 1-2.592 2.304c-.384.32-.8.608-1.248.864-.448.192-.896.352-1.344.48-.832.32-1.568.32-2.208 0-.64-.32-1.024-.896-1.152-1.728a9.102 9.102 0 0 1-.288-2.208 13.848 13.848 0 0 1 0-2.304c.128-.768.32-1.696.576-2.784.256-1.088.544-2.208.864-3.36a277.623 277.623 0 0 1 1.44-6.144c.128-.576.224-1.12.288-1.632l.384-1.536c.512 0 .928.128 1.248.384.32.192.448.448.384.768-.128.384-.224.8-.288 1.248-.064.448-.16.864-.288 1.248-.128.768-.352 1.696-.672 2.784a130.399 130.399 0 0 1-.864 3.264 231.47 231.47 0 0 1-.96 3.36 35.034 35.034 0 0 0-.576 2.688 13.172 13.172 0 0 0-.096 1.632 3.58 3.58 0 0 0 .096 1.44c.064.576.256.96.576 1.152.32.128.736.128 1.248 0l2.304-1.152a26.311 26.311 0 0 0 3.936-3.552 43.677 43.677 0 0 0 3.456-4.128c.192-.192.32-.416.384-.672.128-.32.224-.64.288-.96.192-.704.352-1.44.48-2.208l.384-2.304a.852.852 0 0 0 .096-.384c0-.192.064-.384.192-.576.192-.576.352-.96.48-1.152.192-.192.512-.224.96-.096 1.152.128 1.728.736 1.728 1.824-.128.768-.32 1.536-.576 2.304l-.768 1.536c-.256.448-.576.928-.96 1.44-.704.96-1.248 2.24-1.632 3.84a52.733 52.733 0 0 1-.672 3.072 70.86 70.86 0 0 1-.672 3.168c.384-.256.704-.416.96-.48a223.279 223.279 0 0 0 8.064-7.008c2.816-2.56 5.376-4.96 7.68-7.2.512-.384.864-.672 1.056-.864.192-.256.544-.608 1.056-1.056.384-.064.576.128.576.576.064.448 0 .768-.192.96-.32.512-.672.992-1.056 1.44-.384.448-.8.896-1.248 1.344a787.257 787.257 0 0 1-8.256 7.296 287.8 287.8 0 0 1-8.352 7.008c-.576.512-1.024 1.312-1.344 2.4a146.819 146.819 0 0 1-2.4 9.12 99.084 99.084 0 0 1-2.976 9.024 62.557 62.557 0 0 1-2.4 5.664 51.61 51.61 0 0 1-3.072 5.472 28.313 28.313 0 0 1-2.976 3.744 20.467 20.467 0 0 1-3.744 3.264c-.96.64-1.92 1.152-2.88 1.536a6.28 6.28 0 0 1-3.072.576c-2.56-.192-4-1.536-4.32-4.032-.064-.896 0-1.76.192-2.592.128-.768.32-1.568.576-2.4a21.569 21.569 0 0 1 1.728-4.128 42.04 42.04 0 0 1 2.304-3.552c3.52-5.376 7.52-10.208 12-14.496a78.234 78.234 0 0 1 4.608-4.608l4.8-4.416c.384-.32.672-.64.864-.96.256-.384.448-.8.576-1.248.192-.96.352-1.888.48-2.784.192-.96.448-1.92.768-2.88h-.288c0-.064-.032-.096-.096-.096Zm-2.112 10.08a4.696 4.696 0 0 1-.48.288.628.628 0 0 0-.288.288 151.45 151.45 0 0 0-9.312 8.736 101.157 101.157 0 0 0-8.256 9.792c-.96 1.28-1.888 2.56-2.784 3.84a29 29 0 0 0-2.4 4.128c-.32.768-.608 1.568-.864 2.4a8.958 8.958 0 0 0-.576 2.592c-.192 1.6.128 2.752.96 3.456.832.768 2.016.96 3.552.576 1.408-.32 2.848-1.024 4.32-2.112 2.368-1.664 4.32-3.776 5.856-6.336a96.532 96.532 0 0 0 2.016-3.456 20.602 20.602 0 0 0 1.824-3.552 69.495 69.495 0 0 0 3.648-9.792c.96-3.328 1.888-6.688 2.784-10.08v-.768Zm6.048-19.968c-.064.128-.16.256-.288.384l-.192.384c-.064.192-.096.448-.096.768-.128.192-.16.384-.096.576.064.128.096.32.096.576.256-.448.448-.864.576-1.248.192-.384.192-.864 0-1.44Zm18.509-4.032c.128.512.096.896-.096 1.152-.128.256-.288.48-.48.672-1.728 1.664-2.976 3.552-3.744 5.664a110.623 110.623 0 0 0-2.016 6.816 11.279 11.279 0 0 0-.192 2.016c-.064.64-.096 1.312-.096 2.016-.064.384 0 .832.192 1.344.256 1.088.64 1.824 1.152 2.208.448.32 1.12.224 2.016-.288 1.088-.448 1.984-1.024 2.688-1.728a21.322 21.322 0 0 0 2.976-3.456c.832-1.28 1.6-2.592 2.304-3.936v-.384a.852.852 0 0 0 .096-.384c-.32-.32-.704-.48-1.152-.48-1.856-.448-3.2-1.504-4.032-3.168-.768-1.664-.736-3.424.096-5.28.384-.896.896-1.504 1.536-1.824.704-.384 1.504-.416 2.4-.096 1.92.32 3.136 1.504 3.648 3.552.128.512.16 1.024.096 1.536 0 .448.032.896.096 1.344 0 .32-.032.608-.096.864 0 .192-.032.512-.096.96a9.574 9.574 0 0 1 1.152-.576c.32-.128.672-.256 1.056-.384 1.28-.64 2.624-1.536 4.032-2.688 1.472-1.152 2.752-2.272 3.84-3.36.128-.192.288-.384.48-.576.256-.192.576-.16.96.096.192.192.256.48.192.864-.064.32-.256.608-.576.864a100.3 100.3 0 0 1-2.496 2.208 46.824 46.824 0 0 1-2.784 2.208c-.96.704-1.92 1.344-2.88 1.92-.96.576-1.92.992-2.88 1.248-.448.128-.768.352-.96.672-.128.256-.256.544-.384.864a43.485 43.485 0 0 1-1.728 3.456 13.937 13.937 0 0 1-2.112 2.976c-.576.832-1.216 1.6-1.92 2.304a9.356 9.356 0 0 1-2.304 1.824c-.384.192-.8.384-1.248.576-.384.192-.8.288-1.248.288-1.728.256-2.848-.544-3.36-2.4a8.529 8.529 0 0 1-.384-1.632 12.372 12.372 0 0 1-.096-1.536c.384-6.272 2.336-11.872 5.856-16.8a15.29 15.29 0 0 1 1.44-1.44c.192-.064.544-.096 1.056-.096Zm5.76 9.216c.192-.704.288-1.344.288-1.92a5.934 5.934 0 0 0-.096-1.824c-.256-1.344-1.056-2.272-2.4-2.784-.896-.192-1.632-.064-2.208.384-.576.448-.832 1.152-.768 2.112.064 1.28.576 2.304 1.536 3.072.96.768 2.176 1.088 3.648.96Zm44.132-5.952-.768.96c-.256.32-.544.64-.864.96a758.67 758.67 0 0 1-7.2 7.104 382.466 382.466 0 0 1-7.296 6.912 19.004 19.004 0 0 1-2.4 2.016 66.424 66.424 0 0 1-2.688 1.824c-.512.32-1.056.608-1.632.864-.512.192-1.056.384-1.632.576-.896.256-1.632.16-2.208-.288-.576-.448-.928-1.12-1.056-2.016a23.316 23.316 0 0 1-.096-2.112 26.62 26.62 0 0 0 .096-2.208l-.672.48a42.443 42.443 0 0 1-2.4 2.4c-.448.448-.928.864-1.44 1.248-.512.32-1.056.64-1.632.96-1.024.704-1.984.832-2.88.384-.896-.512-1.28-1.44-1.152-2.784.064-1.792.352-3.616.864-5.472a36.464 36.464 0 0 1 1.824-5.664 68.913 68.913 0 0 1 2.496-5.376c.896-1.728 1.824-3.264 2.784-4.608.128-.192.288-.416.48-.672.192-.256.544-.32 1.056-.192.256.704.16 1.44-.288 2.208-.768 1.152-1.632 2.624-2.592 4.416a62.114 62.114 0 0 0-2.688 5.472 32.903 32.903 0 0 0-1.92 5.472c-.512 1.728-.672 3.2-.48 4.416.064 1.152.64 1.472 1.728.96l1.344-.768a5.908 5.908 0 0 0 1.248-.96 39.1 39.1 0 0 0 2.304-2.304 39.1 39.1 0 0 1 2.304-2.304c.192-.256.352-.512.48-.768.192-.32.352-.64.48-.96.32-.768.608-1.536.864-2.304.256-.832.576-1.664.96-2.496.256-.512.544-.992.864-1.44l.96-1.536a.628.628 0 0 1 .288-.288c.192-.128.352-.16.48-.096.128.128.256.288.384.48s.16.352.096.48l-.192 1.344a4.068 4.068 0 0 1-.384 1.152 54.952 54.952 0 0 1-1.44 2.688l-1.536 2.688a11.022 11.022 0 0 0-1.152 3.36 21.765 21.765 0 0 0-.096 3.552c0 1.472.736 1.92 2.208 1.344 1.28-.32 2.4-.832 3.36-1.536a49.345 49.345 0 0 0 4.512-3.456 60.11 60.11 0 0 0 4.224-3.84c3.2-3.072 6.304-6.176 9.312-9.312.384-.384.736-.768 1.056-1.152.32-.448.672-.864 1.056-1.248.512-.64.928-.768 1.248-.384.32.384.128.992-.576 1.824Zm21.623 7.392a102.124 102.124 0 0 1 3.264-3.84c1.088-1.28 2.24-2.592 3.456-3.936l.768-.96c.256-.32.736-.416 1.44-.288l-.384.96c-.064.256-.192.48-.384.672a137.975 137.975 0 0 1-2.784 3.648 156.73 156.73 0 0 1-2.88 3.36l-1.536 1.824h-.096l-4.416 4.896a129.975 129.975 0 0 1-5.088 5.184l-4.992 4.992a17.054 17.054 0 0 1-2.208 1.536c-.768.448-1.632.736-2.592.864-1.28.32-2.208.224-2.784-.288-.512-.448-.736-1.312-.672-2.592.064-1.088.192-2.176.384-3.264.192-1.152.416-2.272.672-3.36.192-.896.416-1.76.672-2.592l.768-2.496.768-2.88c.32-.96.608-1.888.864-2.784.192-.96.224-2.016.096-3.168 0-1.28-.704-2.24-2.112-2.88a6.808 6.808 0 0 0-.864-.288 11.444 11.444 0 0 0-.864-.384c-2.56-.96-3.296-2.72-2.208-5.28.32-.128.512-.096.576.096a.651.651 0 0 1 .192.48c.064 1.024.352 1.76.864 2.208.512.448 1.248.832 2.208 1.152 1.408.448 2.368 1.056 2.88 1.824s.768 1.888.768 3.36a11.417 11.417 0 0 1-.384 3.648 51.54 51.54 0 0 1-1.056 3.36 75.654 75.654 0 0 0-1.728 5.76 97.51 97.51 0 0 0-1.152 5.952c-.192.896-.064 1.792.384 2.688 1.728.192 3.36-.32 4.896-1.536a51.35 51.35 0 0 0 1.728-1.44c.576-.448 1.12-.96 1.632-1.536a278.046 278.046 0 0 0 6.144-6.144c2.048-2.048 4-4.16 5.856-6.336l-.096-.192Zm68.384-3.36 5.28-4.608c.256-.256.544-.448.864-.576.32-.192.64-.352.96-.48.192 0 .352.064.48.192.064.064.096.16.096.288.064.128.064.224 0 .288-.192.512-.48.928-.864 1.248a54.155 54.155 0 0 0-5.76 4.992l-4.224 3.648a12.014 12.014 0 0 1-2.688 1.728c-.512.256-.96.288-1.344.096-.384-.256-.576-.704-.576-1.344 0-.512.032-1.024.096-1.536s.096-1.024.096-1.536c.064-.64.128-1.312.192-2.016s-.064-1.408-.384-2.112c-1.024-.256-2.048-.032-3.072.672-.768.576-1.6 1.12-2.496 1.632-.832.512-1.6 1.12-2.304 1.824A31.028 31.028 0 0 0 328.974 55a31.052 31.052 0 0 0-2.784 4.128c-.384 1.024-1.12 1.664-2.208 1.92-.128-.576-.16-.96-.096-1.152.128-.512.288-.96.48-1.344.192-.448.352-.928.48-1.44a91.81 91.81 0 0 0 1.056-3.168 64.434 64.434 0 0 0 1.056-3.264c.128-.512.224-1.056.288-1.632.064-.576-.096-1.056-.48-1.44-.512-.512-1.056-.64-1.632-.384-.512.256-.992.48-1.44.672-.704.384-1.44.8-2.208 1.248-.704.384-1.376.832-2.016 1.344a61.785 61.785 0 0 0-4.704 4.416 26.77 26.77 0 0 0-3.744 4.992c-.384.704-.8 1.344-1.248 1.92l-1.344 1.728c-.192.384-.608.8-1.248 1.248a7.794 7.794 0 0 1-.096-.96c-.064-.256-.064-.48 0-.672.128-.448.288-.864.48-1.248.128-.384.288-.8.48-1.248a307.69 307.69 0 0 0 2.976-6.72 127.818 127.818 0 0 1 2.88-6.816l1.152-2.688c.384-.896.64-1.856.768-2.88 0-.384.096-.608.288-.672.256-.128.512-.16.768-.096s.48.224.672.48c.192.192.256.384.192.576-.192 1.28-.512 2.432-.96 3.456a63.39 63.39 0 0 1-1.728 3.744 66.017 66.017 0 0 0-1.632 3.744c-.128.32-.32.704-.576 1.152-.32.384-.48.768-.48 1.152l.96-.768 5.088-4.992a14.264 14.264 0 0 1 2.592-1.92 23.595 23.595 0 0 1 2.784-1.536l1.344-.48c.896-.256 1.632-.192 2.208.192.576.384.928 1.024 1.056 1.92.064.704.064 1.472 0 2.304l-.672 3.744.384.288 1.344-1.44c.896-.96 1.792-1.888 2.688-2.784a16.453 16.453 0 0 1 3.072-2.4l1.728-.96c.64-.32 1.312-.576 2.016-.768 2.048-.704 3.072.064 3.072 2.304a4.377 4.377 0 0 1 0 1.824l-.192 1.728v2.304c.512.128.96.096 1.344-.096a6.907 6.907 0 0 0 1.056-.864l3.936-3.552v-.096Zm7.809-8.16c.384.384.544.736.48 1.056 0 .32-.032.64-.096.96-.32 1.344-.64 2.592-.96 3.744-.256.768-.544 1.76-.864 2.976a142.823 142.823 0 0 1-.864 3.648 72.881 72.881 0 0 0-.672 3.648 56.68 56.68 0 0 0-.576 2.88 12.872 12.872 0 0 0 0 3.84c.192 1.6 1.088 2.112 2.688 1.536.32-.128.608-.288.864-.48.32-.192.608-.352.864-.48a53.788 53.788 0 0 0 6.336-5.088c2.048-1.856 4-3.808 5.856-5.856l7.392-8.544c.192-.256.384-.48.576-.672.256-.192.544-.224.864-.096.256.384.288.704.096.96-.128.256-.32.544-.576.864-.384.512-.704.896-.96 1.152l-.576.768-.672.672c-.192.256-.48.608-.864 1.056a1689.03 1689.03 0 0 0-3.744 4.32 215.178 215.178 0 0 1-3.744 4.032 40.84 40.84 0 0 1-4.8 4.608 53.855 53.855 0 0 1-5.28 3.936c-.96.64-1.856.928-2.688.864-1.536 0-2.496-.736-2.88-2.208a8.098 8.098 0 0 1-.288-2.784c.064-.96.16-1.888.288-2.784.128-1.088.352-2.368.672-3.84.32-1.536.672-3.104 1.056-4.704.384-1.6.768-3.136 1.152-4.608a75.9 75.9 0 0 1 1.248-3.936l.288-.96.384-.48Zm2.976-7.104c-.32.768-.672 1.536-1.056 2.304a19.356 19.356 0 0 1-1.344 2.112h-.192c0-.064-.032-.096-.096-.096a3.725 3.725 0 0 1-.192-.48c-.064-.192-.032-.352.096-.48.192-.576.384-1.12.576-1.632.256-.576.544-1.152.864-1.728.32-.576.768-.576 1.344 0Zm10.209 28.8c0-.32-.032-.576-.096-.768-.064-.192-.032-.416.096-.672l.768-2.112c.256-.768.544-1.504.864-2.208a395.496 395.496 0 0 1 3.168-6.816c1.152-2.624 2.272-4.896 3.36-6.816.512-1.216.928-1.696 1.248-1.44.32.192.416.608.288 1.248-.064.32-.224.768-.48 1.344a21.743 21.743 0 0 1-.864 1.728l-.768 1.728-.576 1.152c-.384.896-.8 1.792-1.248 2.688a52.56 52.56 0 0 0-1.344 2.688c.384.128.672.128.864 0l.384-.576c1.6-1.472 3.2-2.816 4.8-4.032a33.936 33.936 0 0 1 5.28-3.168l.96-.48c1.28-.576 2.432-.672 3.456-.288 1.088.32 1.792 1.312 2.112 2.976l.288 2.016.192 1.344c.064.448.16.896.288 1.344.384 1.664 1.344 2.208 2.88 1.632 1.088-.384 2.112-.8 3.072-1.248a19.32 19.32 0 0 0 2.976-1.632 230.104 230.104 0 0 0 5.664-3.648c1.728-1.216 3.488-2.656 5.28-4.32.128-.128.256-.224.384-.288.192-.128.352-.256.48-.384.384.192.576.416.576.672.064.256.032.448-.096.576-.448.64-.896 1.152-1.344 1.536-1.856 1.728-3.744 3.232-5.664 4.512a269.245 269.245 0 0 1-6.048 3.84 20 20 0 0 1-2.016 1.056l-1.92.768c-.384.128-.8.224-1.248.288a7.58 7.58 0 0 0-1.152.288c-1.408 0-2.432-.672-3.072-2.016a7.133 7.133 0 0 1-.288-1.248 83.082 83.082 0 0 1-.192-1.44 87.787 87.787 0 0 1-.384-1.824l-.384-1.92c-.32-1.088-.992-1.472-2.016-1.152-.768.128-1.408.352-1.92.672a40.064 40.064 0 0 0-8.16 5.184 33.423 33.423 0 0 0-6.528 7.2c-.192.384-.416.768-.672 1.152l-.768.96h-.288c-.064-.064-.128-.096-.192-.096Zm56.464-23.424c.128.064.224.128.288.192.064.064.16.128.288.192l.576-1.056a157.315 157.315 0 0 0 7.008-9.504 174.65 174.65 0 0 0 6.432-9.888 57.096 57.096 0 0 0 2.112-3.84 20.512 20.512 0 0 0 1.632-4.128l.384-1.152c.128-.384 0-.736-.384-1.056-.448-.32-.864-.32-1.248 0s-.672.608-.864.864a94.284 94.284 0 0 1-2.304 2.592c-.704.768-1.408 1.6-2.112 2.496a86.169 86.169 0 0 0-6.624 11.232 94.64 94.64 0 0 0-4.992 12l-.192 1.056Zm-18.144 19.392c1.088-.256 2.016-.704 2.784-1.344l2.112-1.92a60.244 60.244 0 0 0 4.416-4.704 42.387 42.387 0 0 0 3.84-5.088c-.512-.896-1.152-1.408-1.92-1.536a6.96 6.96 0 0 0-2.304 0 7.148 7.148 0 0 0-2.592 1.056 10.907 10.907 0 0 0-2.208 1.728 16.207 16.207 0 0 0-3.072 4.224c-.768 1.536-1.312 3.232-1.632 5.088-.128.32-.16.704-.096 1.152 0 .384.224.832.672 1.344Zm26.4-4.416a86.634 86.634 0 0 0-2.4 2.496 83.242 83.242 0 0 1-2.4 2.304c-.512.512-1.056.992-1.632 1.44l-1.536 1.344-1.92 1.344c-1.92.896-3.072.288-3.456-1.824l-.192-1.152c0-.384.032-.768.096-1.152l.384-3.84c.128-1.344.256-2.72.384-4.128.064-.512.16-1.024.288-1.536.128-.512.128-1.12 0-1.824l-2.4 2.496a92.17 92.17 0 0 0-2.112 2.592 27.02 27.02 0 0 1-2.304 2.4 37.645 37.645 0 0 1-2.304 2.112 80.576 80.576 0 0 1-2.4 2.112l-.96.576c-.32.128-.64.224-.96.288-.64.192-1.184.128-1.632-.192-.448-.32-.704-.8-.768-1.44-.128-1.152-.096-2.176.096-3.072.384-1.792.96-3.488 1.728-5.088a17.378 17.378 0 0 1 2.88-4.608 40.473 40.473 0 0 1 1.728-1.632 7.619 7.619 0 0 1 1.92-1.248c1.408-.64 2.72-.96 3.936-.96 1.28 0 2.56.544 3.84 1.632.064.064.224.096.48.096.512-.32.832-.736.96-1.248s.256-.992.384-1.44a82.88 82.88 0 0 1 5.664-14.592 151.022 151.022 0 0 1 3.744-7.2 59.81 59.81 0 0 1 4.512-6.816 318.44 318.44 0 0 0 1.824-2.208 61.381 61.381 0 0 1 2.016-2.112c.32-.32.64-.576.96-.768.32-.192.672-.416 1.056-.672.448-.192.928-.128 1.44.192.512.32.768.736.768 1.248a7.8 7.8 0 0 1 0 1.728c0 .576-.16 1.152-.48 1.728a138.821 138.821 0 0 1-1.44 3.552 23.215 23.215 0 0 1-1.632 3.36 85.96 85.96 0 0 1-5.472 9.12 261.314 261.314 0 0 1-6.144 8.544 518.12 518.12 0 0 0-2.592 3.36 115.543 115.543 0 0 1-2.592 3.264c-.96 1.088-1.536 2.272-1.728 3.552a85.998 85.998 0 0 0-1.152 5.568 82.06 82.06 0 0 0-.576 5.568 7.804 7.804 0 0 0-.096 2.112c.064.64.288 1.312.672 2.016.32-.128.64-.224.96-.288.32-.064.64-.192.96-.384a55.199 55.199 0 0 0 2.016-1.536 53.595 53.595 0 0 0 2.112-1.824 83.242 83.242 0 0 0 2.4-2.304 42.443 42.443 0 0 0 2.4-2.4 51.52 51.52 0 0 0 1.632-1.728 61.381 61.381 0 0 1 2.016-2.112l2.016-2.016c.704-.704 1.248-1.312 1.632-1.824.32-.32.576-.608.768-.864.192-.32.448-.608.768-.864.384-.192.64-.16.768.096.192.256.288.544.288.864l-.576.672a34.285 34.285 0 0 1-1.824 2.112l-2.4 2.4-2.496 2.496c-.768.832-1.408 1.536-1.92 2.112Zm10.432 4.992a4.377 4.377 0 0 1 0-1.824c.192-.64.416-1.216.672-1.728.832-2.24 1.664-4.512 2.496-6.816a163.484 163.484 0 0 1 2.592-6.72 341.7 341.7 0 0 1 16.512-31.392c.256-.448.48-.896.672-1.344.192-.448.64-.768 1.344-.96.064.256.128.48.192.672.064.192.064.352 0 .48-.192.576-.416 1.12-.672 1.632a42.76 42.76 0 0 1-.864 1.44 270.104 270.104 0 0 0-7.488 13.248 449.24 449.24 0 0 0-6.72 13.632 165.977 165.977 0 0 0-4.128 9.12 85.392 85.392 0 0 0-3.168 9.408c-.128.256-.256.544-.384.864-.128.32-.48.416-1.056.288Zm-1.824 7.008a4.13 4.13 0 0 0 .096-.768c0-.256.064-.48.192-.672.256-.448.64-1.056 1.152-1.824 1.344 1.024 2.176 2.176 2.496 3.456.064.128 0 .32-.192.576a3.757 3.757 0 0 0-.48.864l-3.264-1.632Z" fill="#584024"/></svg>