<svg xmlns="http://www.w3.org/2000/svg" width="435.092" height="133.42" xml:space="preserve"><g fill="#FFF"><path d="M67.899 0H52.545C23.882 0 .566 21.227.566 47.316v38.788c0 26.09 23.315 47.315 51.979 47.315h15.354c28.66 0 51.977-21.226 51.978-47.315V47.316C119.876 21.227 96.559 0 67.899 0zm48.508 86.104c0 24.18-21.76 43.85-48.508 43.85H52.545c-26.75 0-48.51-19.67-48.51-43.85V47.316c0-24.176 21.76-43.849 48.51-43.849h15.354c26.748 0 48.508 19.672 48.508 43.85v38.787z"/><path d="M67.285 6.904H53.158C27.621 6.904 6.92 25.688 6.92 48.859v35.704c0 23.172 20.701 41.955 46.238 41.955h14.127c25.537 0 46.236-18.783 46.236-41.955V48.859c0-23.171-20.699-41.955-46.236-41.955zm20.422 41.951h2.234a1.152 1.152 0 1 1 0 2.304h-2.234a1.152 1.152 0 1 1 0-2.304zm-24.19-18.187a1.156 1.156 0 0 1 1.379-.87c2.854.647 6.897 2.066 9.965 5.134s4.483 7.11 5.133 9.963a1.152 1.152 0 1 1-2.248.512c-.58-2.556-1.836-6.165-4.514-8.845-2.679-2.68-6.289-3.933-8.847-4.515a1.147 1.147 0 0 1-.868-1.379zm16.477 24.451c-.648 2.854-2.064 6.896-5.133 9.965-3.066 3.067-7.109 4.483-9.965 5.131a1.154 1.154 0 0 1-.511-2.248c2.558-.583 6.168-1.836 8.847-4.516 2.678-2.678 3.934-6.288 4.514-8.844a1.154 1.154 0 0 1 2.248.512zM58.633 19.852a1.154 1.154 0 0 1 2.308 0v2.235a1.155 1.155 0 0 1-2.308 0v-2.235zM39.58 44.895c.648-2.852 2.064-6.896 5.133-9.963 3.068-3.065 7.109-4.483 9.961-5.133.621-.139 1.24.25 1.381.87a1.15 1.15 0 0 1-.866 1.38c-2.558.582-6.168 1.835-8.845 4.514-2.68 2.681-3.934 6.287-4.516 8.846a1.152 1.152 0 0 1-1.123.895c-.084 0-.17-.008-.256-.025a1.155 1.155 0 0 1-.869-1.384zm.868 8.843a1.15 1.15 0 0 1 1.379.869c.582 2.556 1.836 6.166 4.516 8.844 2.677 2.68 6.287 3.933 8.845 4.514a1.15 1.15 0 0 1 .866 1.382 1.15 1.15 0 0 1-1.379.868c-2.854-.647-6.896-2.063-9.963-5.131-3.067-3.068-4.483-7.111-5.133-9.965a1.152 1.152 0 0 1 .869-1.381zm-10.817-4.883h2.236c.635 0 1.154.518 1.154 1.15 0 .637-.52 1.154-1.154 1.154h-2.236a1.153 1.153 0 1 1 0-2.304zm24.707 60.848c-6.215 0-14.123-.765-20.123-6.728-3.701-3.676-6.597-8.242-9.397-12.658a205.22 205.22 0 0 0-2.908-4.502c-1.922-2.873-3.738-5.892-5.494-8.811-.803-1.327-1.604-2.662-2.422-3.994l-.295-.479.471-.307c2.951-1.928 6.734-2.99 10.646-2.99 5.064 0 9.984 1.746 13.854 4.914 7.99 6.543 13.244 15.305 14.787 24.67-.027 1.496-.601 1.787-1.076 1.789-.448 0-.929-.287-1.604-.965L39.515 85.92c-1.379 6.039-.174 10.429 3.936 14.513 3.451 3.431 7.261 4.226 10.949 4.991.571.119 3.367 1.552 3.223 2.945-.123 1.196-1.933 1.334-3.285 1.334zm6.603-29.541a1.155 1.155 0 0 1-2.308 0v-2.234a1.154 1.154 0 0 1 2.308 0v2.234zM59.787 66.02a1.967 1.967 0 0 1-1.9-1.485c-.868-3.451-2.342-6.229-4.368-8.259-2.03-2.028-4.81-3.498-8.261-4.371a1.955 1.955 0 0 1 .002-3.795c3.449-.873 6.229-2.344 8.259-4.373 2.026-2.029 3.5-4.807 4.368-8.256a1.965 1.965 0 0 1 1.9-1.486c.896 0 1.675.611 1.9 1.486.869 3.449 2.342 6.227 4.371 8.256 2.027 2.029 4.807 3.502 8.258 4.373a1.96 1.96 0 0 1 1.481 1.896c0 .896-.61 1.677-1.483 1.899-3.449.873-6.229 2.343-8.256 4.371-2.029 2.029-3.502 4.808-4.371 8.259a1.965 1.965 0 0 1-1.9 1.485zm47.105 6.99c-.818 1.332-1.621 2.667-2.421 3.994-1.758 2.919-3.573 5.938-5.495 8.812a220.987 220.987 0 0 0-2.908 4.5c-2.8 4.418-5.695 8.983-9.396 12.66-6.004 5.963-13.91 6.727-20.125 6.727-1.349 0-3.16-.137-3.285-1.334-.143-1.393 2.652-2.825 3.166-2.93 3.744-.779 7.558-1.574 11.011-5.006 4.105-4.084 5.313-8.474 3.934-14.513L70.151 99.601c-.715.721-1.196 1.008-1.646 1.008-.475 0-1.049-.293-1.082-1.683 1.552-9.472 6.802-18.233 14.791-24.776 3.873-3.168 8.791-4.914 13.855-4.914 3.914 0 7.692 1.062 10.646 2.99l.472.306-.295.478z"/><path d="M59.787 44.938a5.073 5.073 0 0 0-5.068 5.068 5.074 5.074 0 0 0 5.068 5.07 5.072 5.072 0 0 0 5.068-5.07 5.072 5.072 0 0 0-5.068-5.068zm0 7.832a2.766 2.766 0 0 1-2.762-2.764 2.768 2.768 0 0 1 2.762-2.764 2.768 2.768 0 0 1 2.762 2.764 2.766 2.766 0 0 1-2.762 2.764z"/></g><g fill="#FFF"><path d="M142.486 43.409c.744.149 1.043 2.387.896 6.712-.15 4.325-.746 9.247-1.789 14.767-1.344 2.237-2.762 2.982-4.252 2.237-1.644-.598-2.164-1.64-1.566-3.133 3.134-5.967 4.849-10.889 5.146-14.767.147-3.876.671-5.816 1.565-5.816zm37.141 18.347c2.088 1.192 2.535 3.653 1.342 7.383-1.195 3.729-4.625 6.041-10.291 6.936h-16.109c-1.791-.148-2.983-.746-3.58-1.789-.747-1.045-1.045-2.237-.895-3.579v-32.22c.146-1.492.895-2.387 2.236-2.685 1.192-.149 1.938.745 2.237 2.685v32.219c0 1.043.371 1.79 1.119 2.237.744.595 1.713.895 2.908.895h8.502c1.043 0 2.16-.225 3.355-.671 1.043-.3 1.862-.972 2.461-2.015.895-2.09 1.791-4.327 2.686-6.711.746-2.536 2.09-3.431 4.029-2.685zm-10.74-32.219c1.043 1.045 1.193 2.163.447 3.355-.746 1.045-1.939 1.27-3.58.672a280.905 280.905 0 0 1-7.158-4.251c-2.836-1.641-4.775-2.611-5.818-2.909-1.938-1.192-2.76-2.163-2.461-2.908.3-.745 1.269-.969 2.908-.671 1.939.298 4.623 1.118 8.055 2.461 3.432 1.343 5.964 2.759 7.607 4.251zm18.795 28.192c.447 2.237 0 3.579-1.344 4.027-1.342.597-2.537.149-3.578-1.343-.748-1.343-1.344-2.982-1.791-4.923a147.13 147.13 0 0 0-1.789-5.816c-1.045-2.388-1.867-4.325-2.461-5.817-.598-1.492-.375-2.088.67-1.79.896-.447 2.609 1.416 5.146 5.594 2.385 4.176 4.102 7.533 5.147 10.068zM251.043 72.943c-.15.146-.299.371-.447.67-.15.148-.301.373-.447.672h-52.803l-.672-.672c-.148-.299-.223-.522-.223-.67 0-.301.073-.523.223-.672.147-.3.373-.522.672-.672h24.611V58.176h-7.16l-2.236 3.58a22.121 22.121 0 0 0 3.131 3.355c1.345.895 2.388 2.162 3.134 3.804-.3.147-.599.298-.896.446-.299.147-.598.299-.895.447a8.64 8.64 0 0 1-1.791-.671 16.714 16.714 0 0 1-1.789-1.566c-.748-.747-1.492-1.341-2.238-1.79-.746-.597-1.193-1.044-1.342-1.342-.896.745-2.313 1.714-4.25 2.908-1.791 1.192-3.209 1.864-4.252 2.014-.3-.148-.447-.299-.447-.446-.15-.149-.15-.3 0-.447v-.896a40.306 40.306 0 0 0 4.475-4.25c1.343-1.492 2.687-3.206 4.027-5.146l-5.816.447c-1.194 0-2.313-.15-3.356-.447-1.045-.15-1.566-.447-1.566-.896 0-.447.148-.821.447-1.118.299-.15.596-.224.896-.224h48.326c.447 0 .746.073.896.224.297.297.447.671.447 1.118-.302.745-1.195 1.119-2.687 1.119-1.643-.15-2.834-.224-3.58-.224l-1.789 3.58a11.548 11.548 0 0 0 2.236 2.461 17.49 17.49 0 0 0 3.133 2.461c.148.147.371.447.672.896.297.297.67.596 1.117.896-.299.447-.596.745-.895.895-.3.299-.599.447-.896.447-1.045-.148-2.461-.82-4.252-2.014-1.939-1.194-3.355-2.163-4.25-2.908a75.674 75.674 0 0 0-4.475 2.908c-1.492 1.043-2.984 1.863-4.476 2.462l-.672-.672c-.15-.3-.223-.522-.223-.671 0-.447.146-.821.446-1.119.146-.149.298-.224.447-.224a40.417 40.417 0 0 0 4.476-4.251c1.19-1.492 2.235-3.206 3.133-5.146h-10.74V71.6h23.717c.146 0 .297.148.447.447.153.298.302.596.452.896zm0-38.037c0 .598-.15 1.27-.447 2.014-.15.598-.447 1.27-.895 2.014h-2.238c-.299-.297-.599-.597-.896-.895-.301-.447-.446-.745-.446-.896v-6.265h-19.242v7.606c-.15.447-.447.896-.896 1.343-.447.447-.895.745-1.342.895-.748-.149-1.344-.447-1.791-.895-.299-.598-.447-1.192-.447-1.79v-7.159h-19.241v6.712c-.148.447-.523.82-1.117 1.118-.599.298-1.119.521-1.566.672-1.344-.15-2.09-.821-2.238-2.014-.147-1.343-.147-2.462 0-3.356 0-1.79.373-3.132 1.119-4.027.896-.895 2.162-1.342 3.804-1.342h19.241v-3.133H201.82l-.895-.447v-1.343l.895-.447h45.644c.147 0 .371.074.672.224.297.15.521.373.67.671-.147.15-.373.374-.67.672a1.452 1.452 0 0 0-.672.671H226.88v3.133h20.137c.596 0 1.119.073 1.566.224a5.93 5.93 0 0 1 1.565 1.118c.146.598.297 1.343.447 2.237.149.746.298 1.641.448 2.685zm-37.141 12.53c0 1.343-.373 2.535-1.118 3.58-.746 1.045-1.865 1.641-3.355 1.79h-4.922c-1.644 0-2.984-.373-4.027-1.118-.895-.745-1.344-1.864-1.344-3.356 0-1.492.299-2.759.896-3.804.744-1.045 1.789-1.566 3.132-1.566h6.713c1.043 0 1.938.448 2.686 1.343.742.894 1.189 1.938 1.339 3.131zm-4.474 2.685v-4.475h-5.816v4.475h5.816zm9.843-15.662a2.648 2.648 0 0 1-.446.672c-.148.149-.3.373-.447.671h-12.082c-.299-.298-.523-.447-.67-.447-.301-.15-.523-.298-.672-.448v-.895l1.342-.895h11.635c.148 0 .371.073.672.224.295.298.52.671.668 1.118zm.448 5.818c-.299 0-.447.149-.447.447h-13.424l-.895-.447v-1.343l.895-.447h12.529l1.342.896v.894zm12.978 7.159c-.149 1.193-.598 2.313-1.344 3.356-.746 1.192-1.789 1.864-3.133 2.014h-7.158c-1.492-.149-2.61-.597-3.356-1.343-.746-.744-1.117-1.64-1.117-2.685-.15-1.492.146-2.835.895-4.027.744-1.192 1.938-1.79 3.58-1.79h7.607c1.041 0 1.938.448 2.684 1.343s1.192 1.939 1.342 3.132zm-4.924 3.133v-4.922h-6.264v4.922h6.264zm16.11-16.11-.447.896-.447.895H230.46l-.896-.895v-.896l.896-.895h12.528c.148 0 .298.149.447.447.149.151.299.299.448.448zm0 4.923c-.148.447-.373.745-.67.895-.301.298-.523.447-.672.447h-12.082l-.896-.447v-1.343l.896-.447h12.528l.896.895zm6.265 8.502a39.403 39.403 0 0 0-.446 2.014c-.15.597-.302 1.269-.447 2.014a1563.512 1563.512 0 0 0-3.58.894h-6.266a5.952 5.952 0 0 1-3.134-1.343c-.895-.744-1.342-1.64-1.342-2.685 0-1.492.371-2.835 1.119-4.027.895-1.192 2.162-1.79 3.803-1.79h5.818c1.49 0 2.606.448 3.354 1.343.746.895 1.121 2.088 1.121 3.58zm-4.474 2.685v-4.922h-5.371v4.922h5.371zM312.17 28.195c-.15.15-.375.298-.673.448-.299.149-.522.297-.672.447h-39.376v23.269a34.602 34.602 0 0 1-2.462 11.634 82.961 82.961 0 0 1-5.146 10.292c-.447.447-.82.744-1.119.896-.447.298-.82.447-1.117.447-.301-.149-.598-.3-.896-.447-.299-.149-.447-.3-.447-.446v-.447c1.938-3.73 3.357-7.311 4.252-10.74.896-3.282 1.566-6.861 2.015-10.739-.302.149-.748.447-1.345.896-.596.447-1.192 1.044-1.789 1.789l-2.237 1.343c-.746.447-1.343.745-1.789.896a2.832 2.832 0 0 1-1.119-.672c-.148-.298-.224-.671-.224-1.118 0-.298.074-.672.224-1.119.147-.597.371-.969.672-1.118l7.16-4.923v-5.369l-1.791-.448c-1.045-.597-2.09-1.789-3.133-3.579-1.043-1.641-1.789-2.982-2.236-4.027.148-.298.371-.598.672-.896.297-.297.67-.447 1.117-.447.147 0 .521.15 1.119.447.446.447.969 1.045 1.565 1.79.597.447 1.119.821 1.566 1.119.447.447.818.821 1.119 1.118v-7.606c0-1.641.594-2.759 1.789-3.356 1.043-.598 2.237-.821 3.58-.671h14.317l-.446-1.79c-.148-.896-.076-1.864.225-2.909.146-1.044.818-1.565 2.014-1.565.597 0 1.119.149 1.566.447.447.298.818.745 1.117 1.342v4.476h20.583c.447 0 .746.073.896.224.299.29.449.664.449 1.112zm.894 22.821c-.15.298-.447.598-.895.896-.448.298-.748.597-.896.895a22.022 22.022 0 0 1-3.354-1.118 23.008 23.008 0 0 1-3.355-1.566v9.396c-.15 1.641-.672 2.835-1.566 3.58-.895.598-2.014.895-3.354.895h-5.371v3.58c.148 3.581-.299 6.042-1.342 7.385-.895 1.343-3.58 2.014-8.055 2.014l-.896-.448v-.895c.297-.3.744-.522 1.342-.671.447-.15 1.043-.225 1.791-.225.595-.149 1.117-.598 1.566-1.343.297-.747.521-1.343.67-1.79v-7.607h-7.16a16.355 16.355 0 0 0-2.012-.671c-.598-.149-.973-.373-1.119-.671-.301-.447-.522-1.045-.672-1.79-.15-.598-.223-1.343-.223-2.237V50.57c-.896.447-1.867.895-2.91 1.343a9.494 9.494 0 0 1-2.908.895h-.447l-.446-.895c-.15-.448-.15-.821 0-1.119.147-.149.446-.224.895-.224a27.562 27.562 0 0 1 3.355-2.461 27.419 27.419 0 0 1 3.356-2.461c-.301-.298-.672-.672-1.119-1.119a36.946 36.946 0 0 0-1.119-1.566 37.79 37.79 0 0 1-1.118-1.565c-.148-.598-.224-.97-.224-1.119 0-.447.074-.821.224-1.118.147-.298.373-.521.672-.672 1.043.298 2.088.896 3.133 1.79 1.043 1.045 1.938 1.939 2.684 2.685l1.791-2.685c.447-.895 1.043-1.79 1.789-2.685h-11.633a8.67 8.67 0 0 1-1.119-.447c-.149-.15-.225-.298-.225-.448 0-.447.147-.82.447-1.118.299-.15.596-.224.896-.224h12.529l.895-1.343c.297-1.045.744-1.939 1.342-2.685.597-.896 1.343-1.343 2.238-1.343.744 0 1.342.298 1.789.896.297.745.447 1.492.447 2.237-.15.297-.299.671-.447 1.118-.15.298-.299.671-.447 1.119h17.898l.895.447.449 1.343-1.344.447h-14.766a27.422 27.422 0 0 0 2.46 3.355c.744 1.045 1.713 2.014 2.908 2.909a3.29 3.29 0 0 1 .896-1.566c.299-.598.596-1.118.895-1.566.449-.745.896-1.342 1.344-1.79.447-.297.896-.447 1.343-.447.446 0 .895.074 1.342.224.449.15.896.374 1.344.672v.447c-.15.447-.375.969-.672 1.566-.299.447-.672.969-1.119 1.565-.299.15-.598.374-.895.672-.447.149-.746.373-.896.671a1.461 1.461 0 0 0-.672.671c-.299.15-.523.374-.67.672a66.858 66.858 0 0 0 3.354 1.789 89.737 89.737 0 0 0 3.804 1.79c.446-.149.969-.073 1.565.224.594.296.967.82 1.118 1.565zM285.32 66.678l-.446 1.79c-1.195.745-3.133 2.087-5.816 4.026-2.537 1.791-4.475 2.832-5.818 3.133-.299 0-.522-.149-.67-.447-.301-.15-.522-.447-.672-.895l.447-.448a7.529 7.529 0 0 1 2.014-1.79 24.097 24.097 0 0 1 2.015-1.789 23.749 23.749 0 0 1 2.014-1.79 25.183 25.183 0 0 0 2.014-1.79c.447-.598.896-1.045 1.343-1.343.446-.298.896-.447 1.344-.447.594 0 1.117.149 1.565.447.293.298.518.745.666 1.343zm14.768-18.347a161.943 161.943 0 0 1-5.146-4.922 51.983 51.983 0 0 1-4.25-5.37 36.276 36.276 0 0 1-4.026 5.37l-4.478 4.922h17.9zm0 6.712v-4.475h-17.004v4.475h17.004zm0 6.713V57.28h-17.004v4.476h17.004zm11.635 12.081c-.301.448-.598.745-.896.896-.446.297-.746.447-.895.447-1.644-.3-4.104-1.418-7.383-3.355-3.433-1.939-5.297-3.506-5.594-4.698 0-.3.073-.598.225-.895.297-.448.67-.745 1.117-.896h.446c.449 0 .82.074 1.119.224.447.15.82.374 1.119.672 1.043 1.042 2.312 2.014 3.803 2.908a40.016 40.016 0 0 0 4.252 2.461c.447.299.896.672 1.343 1.119.446.296.894.67 1.344 1.117zM374.637 28.195c-.15.15-.375.298-.672.448-.3.149-.523.297-.672.447h-40.271v12.529a179.25 179.25 0 0 1 0 12.529l-.447 4.027-.896 3.58c-.597 2.087-1.789 4.25-3.578 6.488-1.644 2.237-3.283 4.101-4.924 5.593l-.896.447c-.446 0-.819-.149-1.119-.447-.147-.148-.223-.447-.223-.895 2.385-3.58 4.103-6.862 5.146-9.846 1.041-3.132 1.713-6.712 2.014-10.739a74.843 74.843 0 0 1-3.357 3.58c-1.342 1.342-2.76 2.087-4.25 2.237a10.628 10.628 0 0 1-.672-1.119c-.149-.447-.225-.821-.225-1.118 0-.745.225-1.417.672-2.014.447-.598.969-.97 1.566-1.119a56.096 56.096 0 0 0 3.133-2.908 56.505 56.505 0 0 0 3.133-2.909v-6.265l-.896.448c-.299.149-.598.297-.895.447h-1.789c-.301-.447-.748-.969-1.344-1.566a14.407 14.407 0 0 1-1.342-1.566c-.599-.745-1.119-1.342-1.566-1.79-.447-.597-.672-1.044-.672-1.342 0-.448.147-.821.449-1.119.297-.298.594-.521.895-.671.596 0 1.266.149 2.014.447.597.447 1.267 1.045 2.015 1.79.146.149.446.374.895.671.297.298.597.672.896 1.119.147.149.371.373.672.671.147.149.371.374.672.671V30.43c0-1.342.594-2.311 1.789-2.908 1.043-.598 2.236-.821 3.58-.671h14.317c-.147-1.045-.223-2.237-.223-3.58.146-1.492.969-2.237 2.461-2.237.447 0 .818.149 1.119.447.447.298.818.745 1.117 1.343v4.027h21.031c.448 0 .745.149.896.447.296.3.447.599.447.897zm-36.694 38.483c-.149.447-.748 1.863-1.791 4.251a321.584 321.584 0 0 1-1.789 4.698 8.911 8.911 0 0 1-1.119.447c-.598 0-.971.147-1.118.447-.597-.3-1.043-.672-1.343-1.119-.299-.3-.446-.67-.446-1.117.147-.748.895-2.164 2.237-4.252 1.343-2.237 2.236-3.655 2.685-4.251.147-.297.371-.521.672-.671.297-.149.672-.224 1.119-.224.146.149.297.374.446.671.147.299.297.673.447 1.12zm37.141-25.059c-.15.447-.373.745-.673.895-.299.298-.522.447-.67.447-1.94-.149-4.178-.671-6.713-1.565-2.537-.896-4.625-1.716-6.266-2.462v1.343h-12.978l-2.235.447a4.97 4.97 0 0 0-1.566.672 4.94 4.94 0 0 0-1.565.671 91.381 91.381 0 0 1-4.027 1.119 42.064 42.064 0 0 1-3.133.671c-.299 0-.523-.15-.67-.447-.15-.15-.226-.448-.226-.896s.074-.745.226-.895c.146-.15.371-.298.67-.447a91.422 91.422 0 0 0 7.606-4.252 48.35 48.35 0 0 0 7.16-5.146 8.88 8.88 0 0 1 1.342-1.118c.447-.15.896-.225 1.343-.225.448 0 1.192.15 2.237.448.896.297 1.642.597 2.238.895l4.025 2.685c1.344.896 2.686 1.79 4.026 2.686a35.69 35.69 0 0 0 4.252 1.565c1.49.298 3.058.821 4.699 1.566.146.149.297.374.447.671.149.151.301.374.451.672zm-19.689 17.004a4.939 4.939 0 0 1-.895 2.014c-.599.447-1.195.821-1.791 1.119h-6.712l-.895-.448v-1.342a5.977 5.977 0 0 1 2.236-.448c.596-.149 1.342-.149 2.237 0 .595-.149 1.043-.521 1.343-1.118.297-.598.446-1.119.446-1.566h-9.844l.447 1.343c0 .895-.226 1.863-.672 2.908-.3.895-.972 1.416-2.015 1.566a4.965 4.965 0 0 1-1.565-.672c-.447-.447-.67-.969-.67-1.565V48.331c0-2.088.743-3.356 2.235-3.804 1.49-.598 3.133-.821 4.922-.671l3.134.447h3.133c.744-.149 1.49-.074 2.235.224.746.298 1.49.821 2.238 1.566l.447.895V58.623h.006zm11.186 11.635a10.553 10.553 0 0 1-2.014 3.579c-.895 1.043-2.164 1.642-3.805 1.79H345.55c-2.238-.301-3.506-1.418-3.806-3.355-.299-1.939-.373-3.656-.223-5.146 0-1.343.371-2.163 1.119-2.461.744-.298 1.713-.374 2.908-.224.146.447.297.969.446 1.565.148.596.298 1.267.447 2.015v2.686c0 .895.297 1.565.896 2.014.745.447 1.489.671 2.237.671h8.056a4.924 4.924 0 0 0 2.014-.895c.447-.598.818-1.195 1.117-1.79a2.78 2.78 0 0 1 .672-1.119c.147-.447.371-.82.672-1.118.146-.3.371-.522.67-.672s.672-.224 1.119-.224c.596 0 1.119.224 1.566.672a8.635 8.635 0 0 1 1.121 2.012zm-15.215-20.584v-3.133h-9.844v3.133h9.844zm0 5.369v-3.58h-9.844v3.58h9.844zm7.609-17.004-5.816-3.58-1.791 1.79c-.598.598-1.194 1.192-1.789 1.79h9.396zm.447 30.876a3.317 3.317 0 0 1-.896 1.565 8.99 8.99 0 0 1-1.791.672c-1.045-.301-2.235-1.194-3.578-2.686-1.491-1.643-2.237-2.982-2.237-4.027v-.448c.147-.297.371-.521.672-.671.146-.149.371-.224.67-.224h1.791a11.652 11.652 0 0 1 2.461 2.237c.895.745 1.713 1.49 2.461 2.237l.447 1.345zm4.026-12.082-.225.224c0 .15-.074.374-.223.672-.15.149-.226.297-.226.447-.147 0-.223.149-.223.447h-2.687a3.474 3.474 0 0 1-.67-.895c-.149-.448-.225-.746-.225-.896V46.541c-.15-.598-.076-1.045.225-1.342.297-.298.818-.448 1.564-.448.596 0 1.192.15 1.791.448.446.447.744 1.044.895 1.789v9.845h.004zm8.95 2.237c-.299.598-.82 1.269-1.566 2.014-.745.598-1.418.969-2.014 1.119h-5.815l-.896-.896v-.895l.447-.447h4.475c.148-.298.224-.521.224-.672.147-.298.225-.521.225-.671V46.541c0-.745.148-1.416.447-2.014.446-.447 1.043-.671 1.791-.671.446 0 .969.149 1.563.447a2.871 2.871 0 0 1 1.119 1.79V59.07zm3.133 11.635a3.32 3.32 0 0 1-.895 1.566 5.675 5.675 0 0 1-1.344.67c-.447 0-.896-.149-1.343-.447-.446-.149-.895-.447-1.342-.896l-1.791-3.132c-.596-1.045-.895-2.09-.895-3.133v-.447c.147-.298.371-.521.672-.671.297-.15.67-.225 1.119-.225.895.15 2.086 1.045 3.578 2.686 1.347 1.492 2.091 2.834 2.241 4.029zM405.559 53.253c-.15 1.193-.672 2.088-1.566 2.686-.895.597-2.014.895-3.354.895h-10.293c-.896 6.415-2.164 11.187-3.804 14.318-1.791 3.133-3.356 4.325-4.698 3.58-.447-1.343-.076-3.059 1.119-5.146 1.342-2.237 2.159-6.638 2.461-13.2V41.172c0-1.193.596-2.088 1.789-2.686 1.043-.597 2.237-.895 3.579-.895h11.188c1.043 0 1.863.598 2.461 1.79.596 1.044.969 2.237 1.119 3.579l-.001 10.293zm.447-25.506h-21.927c-1.194-.149-1.717-.521-1.565-1.118 0-.746.521-1.119 1.565-1.119h21.927c1.043 0 1.565.373 1.565 1.119.001.597-.522.969-1.565 1.118zm-4.922 27.296V39.829h-10.74v15.214h10.74zm32.217-10.292h-4.922V73.39c-.3 1.49-1.119 2.312-2.461 2.461-1.492 0-2.313-.971-2.462-2.907V44.751h-8.055c-.746 10.292-1.789 17.228-3.133 20.808-1.342 3.58-3.281 6.34-5.816 8.278-1.643 1.192-2.907 1.642-3.805 1.343-.746-.3-.67-.895.225-1.79 1.044-1.194 2.535-3.729 4.476-7.607 1.791-3.877 2.832-10.292 3.133-19.241V29.537c-.301-1.939.896-2.908 3.58-2.908 2.535-.15 7.457-1.119 14.766-2.909 1.642-.298 2.609.224 2.908 1.566.299 1.192-.074 2.163-1.117 2.908-.748.15-2.164.374-4.252.672-2.09.297-5.742.671-10.963 1.118v12.977h17.898c1.192 0 1.791.298 1.791.896-.151.447-.748.745-1.791.894z"/></g><g fill="#FFF"><path d="M138.824 93.435h12.211v2.294h-9.496v7.139h8.076v2.293h-8.076v9.468h-2.715V93.435zM160.383 98.926h2.197l.227 2.843h.096c1.099-1.97 2.716-3.229 4.459-3.229.711 0 1.195.098 1.681.322l-.582 2.295a4.525 4.525 0 0 0-1.422-.194c-1.324 0-2.906.938-3.974 3.586v10.08h-2.682V98.926zM176.607 106.777c0-5.104 3.457-8.238 7.043-8.238 4.006 0 6.302 2.843 6.302 7.365 0 .582-.033 1.066-.132 1.584h-10.563c.225 3.229 2.197 5.361 5.168 5.361 1.52 0 2.844-.42 3.941-1.162l.936 1.711c-1.355.969-3.035 1.616-5.199 1.616-4.201.001-7.496-3.035-7.496-8.237zm10.952-1.357c0-3.102-1.453-4.748-3.844-4.748-2.197 0-4.135 1.744-4.457 4.748h8.301zM199.102 106.777c0-5.104 3.457-8.238 7.041-8.238 4.008 0 6.301 2.843 6.301 7.365a8.12 8.12 0 0 1-.129 1.584H201.75c.227 3.229 2.196 5.361 5.168 5.361 1.521 0 2.846-.42 3.94-1.162l.938 1.711c-1.355.969-3.037 1.616-5.199 1.616-4.201.001-7.495-3.035-7.495-8.237zm10.951-1.357c0-3.102-1.455-4.748-3.844-4.748-2.197 0-4.135 1.744-4.459 4.748h8.303zM239.371 106.421l-6.365-12.986h2.906l2.715 5.978c.678 1.55 1.324 3.035 2.067 4.617h.127c.712-1.582 1.455-3.067 2.103-4.617l2.713-5.978h2.844l-6.396 12.986v8.206h-2.713l-.001-8.206zM255.049 106.809c0-5.266 3.424-8.271 7.27-8.271 3.845 0 7.3 3.005 7.3 8.271 0 5.202-3.455 8.206-7.3 8.206-3.846 0-7.27-3.004-7.27-8.206zm11.791 0c0-3.617-1.81-6.041-4.521-6.041-2.684 0-4.491 2.424-4.491 6.041 0 3.586 1.809 5.977 4.491 5.977 2.712-.001 4.521-2.391 4.521-5.977zM279.967 108.876v-9.95h2.682v9.596c0 2.908.904 4.166 2.974 4.166 1.582 0 2.713-.807 4.166-2.647V98.926h2.682v15.701h-2.195l-.227-2.455h-.098c-1.455 1.713-3.005 2.843-5.171 2.843-3.327 0-4.813-2.133-4.813-6.139zM304.238 98.926h2.197l.227 2.843h.097c1.098-1.97 2.715-3.229 4.459-3.229.711 0 1.194.098 1.68.322l-.582 2.295a4.52 4.52 0 0 0-1.422-.194c-1.324 0-2.906.938-3.973 3.586v10.08h-2.683V98.926zM335.102 93.435h3.393l4.009 11.339a78.172 78.172 0 0 1 1.42 4.426h.131c.481-1.584.873-2.939 1.387-4.426l4.008-11.339h3.394v21.192h-2.554v-11.693c0-1.874.226-4.49.388-6.333h-.129l-1.646 4.942-3.973 10.951h-1.974l-3.94-10.951-1.68-4.942h-.132c.162 1.843.392 4.459.392 6.333v11.693h-2.49V93.435h-.004zM364.418 93.951c0-1.034.743-1.745 1.774-1.745 1.035 0 1.779.711 1.779 1.745 0 1.064-.744 1.744-1.779 1.744-1.031 0-1.774-.678-1.774-1.744zm.42 4.975h2.68v15.701h-2.68V98.926zM379.284 98.926h2.197l.225 2.262h.101c1.484-1.486 3.1-2.648 5.266-2.648 3.326 0 4.813 2.134 4.813 6.139v9.95h-2.683v-9.595c0-2.94-.903-4.168-2.973-4.168-1.582 0-2.713.809-4.266 2.391v11.372h-2.681V98.926zM402.295 106.809c0-5.104 3.229-8.271 6.815-8.271 1.812 0 3.006.68 4.396 1.81l-.129-2.681v-6.043h2.682v23.003h-2.197l-.227-1.842h-.097c-1.229 1.195-2.907 2.229-4.747 2.229-3.941.001-6.496-2.971-6.496-8.205zm11.082 3.81v-8.203c-1.324-1.197-2.521-1.616-3.813-1.616-2.486 0-4.49 2.392-4.49 5.978 0 3.748 1.552 5.978 4.297 5.978 1.452-.002 2.713-.713 4.006-2.137zM427.926 112.98c0-1.229.871-2.067 1.938-2.067s1.938.839 1.938 2.067c0 1.193-.871 2.034-1.938 2.034-1.067.001-1.938-.84-1.938-2.034zm.644-16.96-.063-3.037h2.713l-.064 3.037-.389 12.18h-1.842l-.355-12.18z"/></g></svg>