<svg xmlns="http://www.w3.org/2000/svg" width="435.092" height="133.42" xml:space="preserve"><path fill="#FFC6A2" d="M67.332 133.42H51.979C23.316 133.42 0 112.195 0 86.104V47.316C0 21.227 23.316 0 51.979 0h15.354c28.66 0 51.977 21.227 51.977 47.316v38.788c-.001 26.091-23.318 47.316-51.978 47.316z"/><path fill="#FFF" d="M51.979 3.468c-26.75 0-48.51 19.672-48.51 43.849v38.788c0 24.179 21.76 43.849 48.51 43.849h15.354c26.748 0 48.508-19.67 48.508-43.849V47.316c0-24.177-21.76-43.849-48.508-43.849H51.979z"/><path fill="#FFC6A2" d="M112.955 84.563c0 23.172-20.699 41.955-46.236 41.955H52.592c-25.537 0-46.238-18.783-46.238-41.955V48.859c0-23.172 20.701-41.955 46.238-41.955h14.127c25.537 0 46.236 18.783 46.236 41.955v35.704z"/><path fill="#FFF" d="M53.834 105.424c-3.688-.766-7.498-1.561-10.949-4.992-4.109-4.084-5.314-8.473-3.936-14.512l11.26 13.723c.676.678 1.156.965 1.605.965.475-.002 1.049-.293 1.076-1.789-1.543-9.365-6.797-18.127-14.787-24.67-3.869-3.168-8.789-4.914-13.854-4.914-3.912 0-7.695 1.063-10.646 2.99l-.471.307.295.479c.818 1.332 1.619 2.667 2.422 3.994 1.756 2.919 3.572 5.938 5.494 8.811.99 1.477 1.949 2.986 2.908 4.501 2.801 4.417 5.697 8.983 9.398 12.659 6 5.963 13.908 6.727 20.123 6.727 1.352 0 3.162-.137 3.285-1.334.144-1.394-2.651-2.826-3.223-2.945zM106.15 72.225c-2.953-1.928-6.732-2.99-10.646-2.99-5.064 0-9.982 1.746-13.855 4.914-7.99 6.543-13.24 15.305-14.791 24.777.033 1.389.607 1.682 1.082 1.682.449 0 .93-.287 1.645-1.008l11.221-13.68c1.379 6.039.172 10.428-3.934 14.512-3.453 3.432-7.266 4.227-11.01 5.006-.514.105-3.309 1.537-3.166 2.93.125 1.197 1.936 1.334 3.285 1.334 6.215 0 14.121-.764 20.125-6.727 3.701-3.676 6.596-8.242 9.396-12.659.961-1.515 1.92-3.024 2.908-4.501 1.922-2.873 3.738-5.892 5.496-8.811.799-1.327 1.602-2.662 2.42-3.994l.295-.479-.471-.306zM59.221 81.316a1.154 1.154 0 0 1-1.154-1.154v-2.234a1.154 1.154 0 1 1 2.308 0v2.234c0 .637-.518 1.154-1.154 1.154zM59.221 23.241a1.154 1.154 0 0 1-1.154-1.154v-2.235a1.154 1.154 0 0 1 2.308 0v2.235c0 .637-.518 1.154-1.154 1.154zM78.303 46.303a1.15 1.15 0 0 1-1.123-.896c-.58-2.556-1.836-6.165-4.514-8.844-2.678-2.68-6.289-3.933-8.846-4.515a1.149 1.149 0 0 1-.869-1.38 1.156 1.156 0 0 1 1.379-.87c2.855.648 6.898 2.066 9.965 5.133 3.068 3.068 4.484 7.111 5.133 9.963a1.153 1.153 0 0 1-1.125 1.409zM89.375 51.16h-2.234a1.153 1.153 0 0 1 0-2.305h2.234a1.153 1.153 0 1 1 0 2.305zM54.365 70.244a1.13 1.13 0 0 1-.256-.029c-2.854-.647-6.896-2.063-9.963-5.131-3.068-3.069-4.484-7.112-5.133-9.965a1.152 1.152 0 0 1 .869-1.381 1.15 1.15 0 0 1 1.379.869c.582 2.556 1.836 6.166 4.516 8.844 2.676 2.68 6.287 3.933 8.844 4.514a1.15 1.15 0 0 1 .867 1.381 1.151 1.151 0 0 1-1.123.898zM31.301 51.16h-2.236a1.155 1.155 0 0 1-1.154-1.154c0-.634.518-1.151 1.154-1.151h2.236c.635 0 1.154.518 1.154 1.151 0 .637-.519 1.154-1.154 1.154zM64.076 70.244a1.155 1.155 0 0 1-1.125-.898 1.147 1.147 0 0 1 .869-1.379c2.557-.583 6.168-1.836 8.846-4.516 2.678-2.678 3.934-6.288 4.514-8.844a1.153 1.153 0 1 1 2.248.512c-.648 2.853-2.064 6.896-5.133 9.965-3.066 3.068-7.109 4.483-9.965 5.131a1.1 1.1 0 0 1-.254.029zM40.139 46.303a1.152 1.152 0 0 1-1.125-1.408c.648-2.852 2.064-6.897 5.133-9.963 3.068-3.066 7.109-4.484 9.961-5.133.621-.139 1.24.25 1.381.87a1.152 1.152 0 0 1-.867 1.38c-2.557.582-6.168 1.835-8.844 4.513-2.68 2.681-3.934 6.288-4.516 8.846a1.15 1.15 0 0 1-1.123.895z"/><g fill="#FFF"><path d="M59.221 47.242a2.767 2.767 0 0 0-2.762 2.764c0 1.523 1.238 2.764 2.762 2.764s2.762-1.24 2.762-2.764a2.768 2.768 0 0 0-2.762-2.764z"/><path d="M73.75 48.109c-3.451-.871-6.23-2.344-8.258-4.373-2.029-2.029-3.502-4.807-4.371-8.256a1.966 1.966 0 0 0-1.9-1.486c-.895 0-1.676.609-1.9 1.486-.869 3.449-2.342 6.227-4.369 8.256-2.029 2.029-4.809 3.5-8.258 4.373a1.955 1.955 0 0 0-.002 3.795c3.451.873 6.23 2.343 8.26 4.372 2.027 2.028 3.5 4.807 4.369 8.258a1.967 1.967 0 0 0 1.9 1.485c.898 0 1.676-.612 1.9-1.485.869-3.451 2.342-6.229 4.371-8.258 2.027-2.029 4.807-3.499 8.256-4.372a1.962 1.962 0 0 0 1.484-1.899c0-.894-.611-1.674-1.482-1.896zm-14.529 6.967a5.074 5.074 0 0 1-5.068-5.07 5.073 5.073 0 0 1 5.068-5.068 5.072 5.072 0 0 1 5.068 5.068 5.072 5.072 0 0 1-5.068 5.07z"/></g><g fill="#FEC89A"><path d="M142.486 42.318c.744.149 1.043 2.387.895 6.712-.15 4.325-.746 9.247-1.789 14.767-1.344 2.237-2.762 2.982-4.252 2.237-1.643-.598-2.164-1.64-1.566-3.133 3.133-5.967 4.848-10.889 5.146-14.767.148-3.876.672-5.816 1.566-5.816zm37.141 18.347c2.088 1.192 2.535 3.653 1.342 7.383-1.195 3.728-4.625 6.041-10.291 6.936h-16.109c-1.791-.149-2.984-.747-3.58-1.789-.748-1.045-1.045-2.238-.895-3.58V37.396c.146-1.492.895-2.387 2.236-2.685 1.193-.149 1.938.745 2.238 2.685v32.219c0 1.043.371 1.79 1.119 2.237.744.595 1.713.895 2.908.895h8.502c1.043 0 2.16-.224 3.355-.671 1.043-.3 1.863-.971 2.461-2.014.895-2.09 1.791-4.327 2.686-6.712.745-2.536 2.089-3.431 4.028-2.685zm-10.74-32.219c1.043 1.045 1.193 2.163.447 3.355-.746 1.045-1.939 1.27-3.58.672a282.664 282.664 0 0 1-7.158-4.251c-2.836-1.641-4.775-2.611-5.818-2.909-1.939-1.192-2.76-2.163-2.461-2.908s1.268-.969 2.908-.671c1.939.298 4.623 1.118 8.055 2.461s5.964 2.759 7.607 4.251zm18.795 28.192c.447 2.237 0 3.579-1.344 4.027-1.342.597-2.537.149-3.578-1.343-.748-1.343-1.344-2.982-1.791-4.923a147.13 147.13 0 0 0-1.789-5.816c-1.045-2.388-1.867-4.325-2.461-5.817-.598-1.492-.375-2.088.67-1.79.895-.447 2.609 1.416 5.146 5.594 2.385 4.176 4.102 7.533 5.147 10.068zM251.043 71.852c-.15.147-.299.371-.447.671-.15.148-.301.372-.447.672h-52.803l-.672-.672c-.148-.3-.223-.523-.223-.671 0-.3.074-.523.223-.671.148-.3.373-.523.672-.672h24.611V57.085h-7.16l-2.236 3.58a22.07 22.07 0 0 0 3.131 3.355c1.344.895 2.387 2.161 3.133 3.804-.299.147-.598.298-.895.447-.299.147-.598.298-.895.447a8.718 8.718 0 0 1-1.791-.671 16.925 16.925 0 0 1-1.789-1.566c-.748-.747-1.492-1.342-2.238-1.79-.746-.597-1.193-1.044-1.342-1.342-.895.745-2.313 1.714-4.25 2.908-1.791 1.192-3.209 1.864-4.252 2.014-.299-.149-.447-.3-.447-.447-.15-.149-.15-.3 0-.447v-.896c1.641-1.342 3.133-2.759 4.475-4.251s2.686-3.206 4.027-5.146l-5.816.447a12.21 12.21 0 0 1-3.357-.447c-1.045-.15-1.566-.447-1.566-.896 0-.447.148-.821.447-1.118.299-.15.596-.224.896-.224h48.326c.447 0 .746.073.896.224.297.297.447.671.447 1.118-.301.745-1.195 1.119-2.686 1.119-1.643-.15-2.834-.224-3.58-.224l-1.789 3.58a11.521 11.521 0 0 0 2.236 2.461 17.49 17.49 0 0 0 3.133 2.461c.148.147.371.447.672.895.297.298.67.596 1.117.896-.299.447-.596.745-.895.895-.299.298-.598.447-.895.447-1.045-.149-2.461-.82-4.252-2.014-1.939-1.194-3.355-2.163-4.25-2.908a75.674 75.674 0 0 0-4.475 2.908c-1.492 1.043-2.984 1.864-4.475 2.462l-.672-.672c-.15-.3-.223-.523-.223-.671 0-.447.146-.821.447-1.119.146-.149.297-.224.447-.224a40.406 40.406 0 0 0 4.475-4.251c1.191-1.492 2.236-3.206 3.133-5.146h-10.74v13.424h23.717c.146 0 .297.148.447.447l.45.898zm0-38.037c0 .598-.15 1.27-.447 2.014-.15.598-.447 1.27-.895 2.014h-2.238c-.299-.297-.598-.597-.895-.895-.301-.447-.447-.745-.447-.895v-6.265h-19.242v7.606c-.15.447-.447.896-.895 1.343s-.895.745-1.342.895c-.748-.149-1.344-.447-1.791-.895-.299-.598-.447-1.192-.447-1.79v-7.159h-19.242V36.5c-.148.447-.523.82-1.117 1.118-.598.298-1.119.521-1.566.672-1.344-.15-2.09-.821-2.238-2.014-.148-1.343-.148-2.462 0-3.356 0-1.79.373-3.132 1.119-4.027.895-.895 2.162-1.342 3.803-1.342h19.242v-3.133H201.82l-.895-.447v-1.343l.895-.447h45.643c.148 0 .371.074.672.224.297.15.521.373.67.671-.148.15-.373.374-.67.672a1.452 1.452 0 0 0-.672.671h-20.584v3.133h20.137c.596 0 1.119.073 1.566.224a5.953 5.953 0 0 1 1.566 1.118c.146.598.297 1.343.447 2.237.149.745.298 1.64.448 2.684zm-37.141 12.53c0 1.343-.373 2.535-1.119 3.58s-1.865 1.641-3.355 1.79h-4.922c-1.643 0-2.984-.373-4.027-1.118-.895-.745-1.344-1.864-1.344-3.356s.299-2.759.896-3.804c.744-1.045 1.789-1.566 3.131-1.566h6.713c1.043 0 1.938.448 2.686 1.343.744.894 1.191 1.938 1.341 3.131zm-4.474 2.685v-4.475h-5.816v4.475h5.816zm9.843-15.662a2.648 2.648 0 0 1-.447.672c-.148.149-.299.373-.447.671h-12.082c-.299-.298-.523-.447-.67-.447-.301-.15-.523-.298-.672-.448v-.895l1.342-.895h11.635c.148 0 .371.073.672.224.296.298.521.671.669 1.118zm.448 5.818c-.299 0-.447.149-.447.447h-13.424l-.895-.447v-1.343l.895-.447h12.529l1.342.896v.894zm12.978 7.159c-.15 1.193-.598 2.312-1.344 3.356-.746 1.192-1.789 1.864-3.133 2.014h-7.158c-1.492-.149-2.611-.597-3.357-1.343-.746-.744-1.117-1.64-1.117-2.685-.15-1.492.146-2.835.895-4.027.744-1.192 1.938-1.79 3.58-1.79h7.607c1.041 0 1.938.448 2.684 1.343.746.895 1.193 1.939 1.343 3.132zm-4.924 3.133v-4.922h-6.264v4.922h6.264zm16.11-16.11-.447.896c-.15.298-.299.597-.447.895H230.46l-.895-.895v-.896l.895-.895h12.529c.148 0 .297.149.447.447.148.151.298.299.447.448zm0 4.923c-.148.447-.373.745-.67.895-.301.298-.523.447-.672.447h-12.082l-.895-.447v-1.343l.895-.447h12.529l.895.895zm6.265 8.502c-.15.597-.301 1.269-.447 2.014-.15.597-.301 1.269-.447 2.014a2345.27 2345.27 0 0 0-3.58.894h-6.266a5.946 5.946 0 0 1-3.133-1.343c-.895-.744-1.342-1.64-1.342-2.685 0-1.492.371-2.835 1.119-4.027.895-1.192 2.162-1.79 3.803-1.79h5.818c1.49 0 2.607.448 3.355 1.343.745.895 1.12 2.088 1.12 3.58zm-4.474 2.685v-4.922h-5.371v4.922h5.371zM312.17 27.104c-.15.15-.375.298-.672.448-.299.149-.523.297-.672.447h-39.377v23.269a34.601 34.601 0 0 1-2.461 11.634 83.254 83.254 0 0 1-5.146 10.293c-.447.447-.82.744-1.119.895-.447.298-.82.447-1.117.447-.301-.149-.598-.3-.896-.447-.299-.15-.447-.3-.447-.447v-.447c1.938-3.73 3.357-7.31 4.252-10.74.895-3.282 1.566-6.861 2.014-10.739-.301.149-.748.447-1.344.896-.596.447-1.193 1.044-1.789 1.789l-2.238 1.343c-.746.447-1.342.745-1.789.896a2.832 2.832 0 0 1-1.119-.672c-.148-.298-.223-.671-.223-1.118 0-.298.074-.672.223-1.119.148-.597.371-.969.672-1.118l7.16-4.923v-5.369l-1.791-.448c-1.045-.597-2.09-1.789-3.133-3.579-1.043-1.641-1.789-2.982-2.236-4.027.148-.298.371-.598.672-.896.297-.297.67-.447 1.117-.447.148 0 .521.15 1.119.447.447.447.969 1.045 1.566 1.79.596.447 1.119.821 1.566 1.119.447.447.818.821 1.119 1.118v-7.606c0-1.641.594-2.759 1.789-3.356 1.043-.598 2.238-.821 3.58-.671h14.318l-.447-1.79c-.148-.896-.076-1.864.225-2.909.146-1.044.818-1.565 2.014-1.565.596 0 1.119.149 1.566.447s.818.745 1.117 1.342v4.476h20.584c.447 0 .746.073.896.224.297.291.447.665.447 1.113zm.894 22.821c-.15.298-.447.598-.895.896s-.748.597-.896.895a22.072 22.072 0 0 1-3.355-1.118 23.008 23.008 0 0 1-3.355-1.566v9.396c-.15 1.641-.672 2.835-1.566 3.58-.895.598-2.014.895-3.355.895h-5.371v3.58c.148 3.58-.299 6.041-1.342 7.384-.895 1.343-3.58 2.014-8.055 2.014l-.895-.448v-.894c.297-.3.744-.523 1.342-.671.447-.15 1.043-.224 1.791-.224.594-.15 1.117-.598 1.566-1.343.297-.747.521-1.343.67-1.79v-7.607h-7.16a16.355 16.355 0 0 0-2.012-.671c-.598-.149-.973-.373-1.119-.671-.301-.447-.523-1.045-.672-1.79-.15-.598-.223-1.343-.223-2.237V49.48c-.896.447-1.867.895-2.91 1.343a9.485 9.485 0 0 1-2.908.895h-.447l-.447-.895c-.15-.448-.15-.821 0-1.119.148-.149.447-.224.895-.224a27.562 27.562 0 0 1 3.355-2.461 27.43 27.43 0 0 1 3.357-2.461c-.301-.298-.672-.672-1.119-1.119a36.946 36.946 0 0 0-1.119-1.566 36.984 36.984 0 0 1-1.119-1.565c-.148-.598-.223-.97-.223-1.119 0-.447.074-.821.223-1.118.148-.298.373-.521.672-.672 1.043.298 2.088.896 3.133 1.79 1.043 1.045 1.938 1.939 2.684 2.685l1.791-2.685c.447-.895 1.043-1.79 1.789-2.685h-11.633a8.67 8.67 0 0 1-1.119-.447c-.15-.15-.225-.298-.225-.448 0-.447.148-.82.447-1.118.299-.15.596-.224.896-.224h12.529l.895-1.343c.297-1.045.744-1.939 1.342-2.685.596-.896 1.342-1.343 2.238-1.343.744 0 1.342.298 1.789.896.297.745.447 1.492.447 2.237-.15.297-.299.671-.447 1.118-.15.298-.299.671-.447 1.119h17.898l.895.447.449 1.343-1.344.447h-14.766a27.534 27.534 0 0 0 2.461 3.355c.744 1.045 1.713 2.014 2.908 2.909a3.296 3.296 0 0 1 .895-1.566c.299-.598.596-1.118.895-1.566.449-.745.896-1.342 1.344-1.79.447-.297.895-.447 1.342-.447s.895.074 1.342.224c.449.15.896.374 1.344.672v.447c-.15.447-.375.969-.672 1.566-.299.447-.672.969-1.119 1.565-.299.15-.598.374-.895.672-.447.149-.746.373-.895.671a1.457 1.457 0 0 0-.672.671c-.299.15-.523.374-.67.672a66.47 66.47 0 0 0 3.355 1.789 90.266 90.266 0 0 0 3.803 1.79c.447-.149.969-.073 1.566.224.596.295.969.819 1.119 1.564zM285.32 65.587l-.447 1.79c-1.195.745-3.133 2.087-5.816 4.027-2.537 1.79-4.475 2.832-5.818 3.132-.299 0-.523-.149-.67-.447-.301-.15-.523-.447-.672-.895l.447-.448a7.546 7.546 0 0 1 2.014-1.79 23.92 23.92 0 0 1 2.014-1.789 23.749 23.749 0 0 1 2.014-1.79 25.183 25.183 0 0 0 2.014-1.79c.447-.598.895-1.045 1.342-1.343s.896-.447 1.344-.447c.594 0 1.117.149 1.566.447.295.298.52.745.668 1.343zm14.768-18.347a161.943 161.943 0 0 1-5.146-4.922 51.715 51.715 0 0 1-4.25-5.37 36.281 36.281 0 0 1-4.027 5.37l-4.477 4.922h17.9zm0 6.712v-4.475h-17.004v4.475h17.004zm0 6.713v-4.476h-17.004v4.476h17.004zm11.635 12.081c-.301.448-.598.745-.896.896-.447.297-.746.447-.895.447-1.643-.3-4.104-1.418-7.383-3.356-3.432-1.939-5.297-3.506-5.594-4.698 0-.3.074-.598.225-.895.297-.448.67-.745 1.117-.896h.447c.449 0 .82.074 1.119.224.447.15.82.374 1.119.672 1.043 1.042 2.311 2.014 3.803 2.908a39.818 39.818 0 0 0 4.252 2.461 8.9 8.9 0 0 1 1.342 1.119 8.99 8.99 0 0 1 1.344 1.118zM374.637 27.104c-.15.15-.375.298-.672.448-.299.149-.523.297-.672.447h-40.271v12.529a179.25 179.25 0 0 1 0 12.529l-.447 4.027-.896 3.58c-.596 2.087-1.789 4.25-3.578 6.488-1.643 2.237-3.283 4.101-4.924 5.593l-.895.448c-.447 0-.82-.15-1.119-.448-.148-.149-.223-.447-.223-.895 2.385-3.58 4.102-6.862 5.146-9.845 1.041-3.132 1.713-6.712 2.014-10.739a74.843 74.843 0 0 1-3.357 3.58c-1.342 1.342-2.76 2.087-4.25 2.237a10.458 10.458 0 0 1-.672-1.119c-.15-.447-.225-.821-.225-1.118 0-.745.225-1.417.672-2.014.447-.598.969-.97 1.566-1.119a56.096 56.096 0 0 0 3.133-2.908 56.505 56.505 0 0 0 3.133-2.909v-6.265l-.896.448c-.299.149-.598.297-.895.447h-1.789c-.301-.447-.748-.969-1.344-1.566a14.519 14.519 0 0 1-1.342-1.566c-.598-.745-1.119-1.342-1.566-1.79-.447-.597-.672-1.044-.672-1.342 0-.448.148-.821.449-1.119.297-.298.594-.521.895-.671.596 0 1.266.149 2.014.447.596.447 1.266 1.045 2.014 1.79.146.149.447.374.895.671.297.298.596.672.895 1.119.148.149.371.373.672.671.148.149.371.374.672.671v-8.502c0-1.342.594-2.311 1.789-2.908 1.043-.598 2.236-.821 3.58-.671h14.318c-.148-1.045-.223-2.237-.223-3.58.146-1.492.969-2.237 2.461-2.237.447 0 .818.149 1.119.447.447.298.818.745 1.117 1.343v4.027h21.031c.449 0 .746.149.896.447.296.3.447.599.447.897zm-36.694 38.483c-.15.447-.748 1.863-1.791 4.251a326.365 326.365 0 0 1-1.789 4.698 8.911 8.911 0 0 1-1.119.447c-.598 0-.971.148-1.119.447-.596-.299-1.043-.671-1.342-1.118a1.517 1.517 0 0 1-.447-1.118c.148-.748.895-2.164 2.238-4.252 1.342-2.237 2.236-3.655 2.684-4.251.148-.297.371-.521.672-.671.297-.149.672-.224 1.119-.224.146.149.297.374.447.671.147.299.297.673.447 1.12zm37.141-25.059c-.15.447-.373.745-.672.895-.299.298-.523.447-.67.447-1.941-.149-4.178-.671-6.713-1.565-2.537-.896-4.625-1.716-6.266-2.462v1.343h-12.977l-2.236.447a4.98 4.98 0 0 0-1.566.672 4.956 4.956 0 0 0-1.566.671 91.381 91.381 0 0 1-4.027 1.119 42.064 42.064 0 0 1-3.133.671c-.299 0-.523-.15-.67-.447-.15-.15-.225-.448-.225-.896s.074-.745.225-.895c.146-.15.371-.298.67-.447a91.606 91.606 0 0 0 7.607-4.252 48.35 48.35 0 0 0 7.16-5.146 8.83 8.83 0 0 1 1.342-1.118c.447-.15.895-.225 1.342-.225.449 0 1.193.15 2.238.448.895.297 1.641.597 2.238.895l4.025 2.685c1.344.896 2.686 1.79 4.027 2.686a35.69 35.69 0 0 0 4.252 1.565c1.49.298 3.057.821 4.699 1.566.146.149.297.374.447.671.148.151.299.374.449.672zm-19.689 17.004a4.939 4.939 0 0 1-.895 2.014c-.598.447-1.195.821-1.791 1.119h-6.711l-.895-.448v-1.342a5.977 5.977 0 0 1 2.236-.448c.596-.149 1.342-.149 2.238 0 .594-.149 1.043-.521 1.342-1.118.297-.598.447-1.119.447-1.566h-9.844l.447 1.343c0 .895-.225 1.863-.672 2.908-.299.895-.971 1.416-2.014 1.566a4.98 4.98 0 0 1-1.566-.672c-.447-.447-.67-.969-.67-1.565V47.24c0-2.088.744-3.356 2.236-3.804 1.49-.598 3.133-.821 4.922-.671l3.133.447h3.133c.744-.149 1.49-.074 2.236.224s1.49.821 2.238 1.566l.447.895V57.532zm11.187 11.635a10.587 10.587 0 0 1-2.014 3.579c-.895 1.043-2.164 1.641-3.805 1.79H345.55c-2.238-.3-3.506-1.418-3.805-3.355-.299-1.94-.373-3.656-.223-5.146 0-1.343.371-2.163 1.119-2.461.744-.298 1.713-.374 2.908-.224.146.447.297.969.447 1.565.148.596.297 1.267.447 2.014v2.686c0 .895.297 1.566.895 2.014.746.447 1.49.671 2.238.671h8.055a4.931 4.931 0 0 0 2.014-.895c.447-.598.818-1.195 1.117-1.79.148-.447.373-.821.672-1.119.148-.447.371-.82.672-1.118.146-.3.371-.523.67-.672.299-.149.672-.224 1.119-.224.596 0 1.119.224 1.566.672a8.7 8.7 0 0 1 1.121 2.013zm-15.215-20.584V45.45h-9.844v3.133h9.844zm0 5.369v-3.58h-9.844v3.58h9.844zm7.608-17.004-5.816-3.58-1.791 1.79c-.598.598-1.195 1.192-1.789 1.79h9.396zm.447 30.876a3.332 3.332 0 0 1-.895 1.566 8.925 8.925 0 0 1-1.791.671c-1.045-.3-2.236-1.194-3.578-2.685-1.492-1.643-2.238-2.982-2.238-4.027v-.448c.148-.297.371-.521.672-.671.146-.149.371-.224.67-.224h1.791a11.652 11.652 0 0 1 2.461 2.237c.895.745 1.713 1.49 2.461 2.237l.447 1.344zm4.027-12.082-.225.224c0 .15-.074.374-.223.672-.15.149-.225.297-.225.447-.148 0-.223.149-.223.447h-2.686a3.45 3.45 0 0 1-.67-.895c-.15-.448-.225-.746-.225-.896V45.45c-.15-.598-.076-1.045.225-1.342.297-.298.818-.448 1.564-.448.596 0 1.193.15 1.791.448.447.447.744 1.044.895 1.789v9.845zm8.949 2.237c-.299.598-.82 1.269-1.566 2.014-.746.598-1.418.969-2.014 1.119h-5.816l-.895-.896v-.895l.447-.447h4.475c.148-.298.223-.521.223-.672.148-.298.225-.521.225-.671V45.45c0-.745.148-1.416.447-2.014.447-.447 1.043-.671 1.791-.671.447 0 .969.149 1.564.447a2.871 2.871 0 0 1 1.119 1.79v12.977zm3.133 11.635a3.332 3.332 0 0 1-.895 1.566 5.7 5.7 0 0 1-1.344.671c-.447 0-.895-.15-1.342-.447-.447-.15-.895-.448-1.342-.896l-1.791-3.132c-.596-1.045-.895-2.09-.895-3.133v-.447c.148-.298.371-.521.672-.671.297-.15.67-.225 1.119-.225.895.15 2.086 1.045 3.578 2.686 1.346 1.491 2.09 2.833 2.24 4.028zM405.559 52.162c-.15 1.193-.672 2.088-1.566 2.686-.895.597-2.014.895-3.355.895h-10.293c-.895 6.415-2.164 11.187-3.803 14.319-1.791 3.133-3.357 4.325-4.699 3.58-.447-1.343-.076-3.059 1.119-5.146 1.342-2.237 2.16-6.638 2.461-13.2V40.081c0-1.193.596-2.088 1.789-2.686 1.043-.597 2.238-.895 3.58-.895h11.188c1.043 0 1.863.598 2.461 1.79.596 1.044.969 2.237 1.119 3.579v10.293zm.447-25.506H384.08c-1.195-.149-1.717-.521-1.566-1.118 0-.746.521-1.119 1.566-1.119h21.926c1.043 0 1.566.373 1.566 1.119 0 .597-.523.969-1.566 1.118zm-4.922 27.296V38.738h-10.74v15.214h10.74zm32.217-10.292h-4.922v28.639c-.299 1.49-1.119 2.312-2.461 2.461-1.492 0-2.313-.971-2.461-2.908V43.66h-8.055c-.746 10.292-1.789 17.228-3.133 20.808-1.342 3.58-3.281 6.339-5.816 8.278-1.643 1.192-2.908 1.641-3.805 1.343-.746-.3-.67-.895.225-1.79 1.043-1.194 2.535-3.729 4.475-7.607 1.791-3.877 2.832-10.292 3.133-19.241V28.446c-.301-1.939.895-2.908 3.58-2.908 2.535-.15 7.457-1.119 14.766-2.909 1.641-.298 2.609.224 2.908 1.566.299 1.192-.074 2.163-1.117 2.908-.748.15-2.164.374-4.252.672-2.09.297-5.742.671-10.963 1.118V41.87h17.898c1.193 0 1.791.298 1.791.896-.151.447-.748.745-1.791.894z"/></g><g fill="#FEC89A"><path d="M138.824 92.344h12.211v2.293h-9.496v7.14h8.076v2.293h-8.076v9.467h-2.715V92.344zM160.383 97.835h2.197l.227 2.843h.096c1.098-1.97 2.715-3.23 4.459-3.23.711 0 1.195.098 1.68.323l-.582 2.294a4.55 4.55 0 0 0-1.422-.194c-1.324 0-2.906.938-3.973 3.586v10.08h-2.682V97.835zM176.607 105.686c0-5.104 3.457-8.238 7.043-8.238 4.006 0 6.301 2.843 6.301 7.365 0 .582-.033 1.067-.131 1.585h-10.563c.225 3.229 2.197 5.361 5.168 5.361 1.52 0 2.844-.42 3.941-1.163l.936 1.712c-1.355.969-3.035 1.616-5.199 1.616-4.201 0-7.496-3.036-7.496-8.238zm10.952-1.357c0-3.102-1.453-4.748-3.844-4.748-2.197 0-4.135 1.744-4.457 4.748h8.301zM199.102 105.686c0-5.104 3.457-8.238 7.041-8.238 4.008 0 6.301 2.843 6.301 7.365 0 .582-.031 1.067-.129 1.585H201.75c.227 3.229 2.197 5.361 5.168 5.361 1.521 0 2.846-.42 3.941-1.163l.938 1.712c-1.355.969-3.037 1.616-5.199 1.616-4.202 0-7.496-3.036-7.496-8.238zm10.951-1.357c0-3.102-1.455-4.748-3.844-4.748-2.197 0-4.135 1.744-4.459 4.748h8.303zM239.371 105.33l-6.365-12.986h2.906l2.715 5.977c.678 1.55 1.324 3.036 2.068 4.618h.127c.711-1.582 1.455-3.068 2.102-4.618l2.713-5.977h2.844l-6.396 12.986v8.206h-2.713v-8.206zM255.049 105.718c0-5.266 3.424-8.271 7.27-8.271 3.844 0 7.299 3.005 7.299 8.271 0 5.202-3.455 8.206-7.299 8.206-3.846 0-7.27-3.004-7.27-8.206zm11.791 0c0-3.618-1.809-6.041-4.521-6.041-2.684 0-4.492 2.423-4.492 6.041 0 3.586 1.809 5.977 4.492 5.977 2.712-.001 4.521-2.391 4.521-5.977zM279.967 107.785v-9.95h2.682v9.595c0 2.909.904 4.167 2.973 4.167 1.582 0 2.713-.807 4.166-2.648V97.835h2.682v15.701h-2.195l-.227-2.455h-.098c-1.455 1.713-3.004 2.843-5.17 2.843-3.327 0-4.813-2.133-4.813-6.139zM304.238 97.835h2.197l.227 2.843h.096c1.098-1.97 2.715-3.23 4.459-3.23.711 0 1.195.098 1.68.323l-.582 2.294a4.55 4.55 0 0 0-1.422-.194c-1.324 0-2.906.938-3.973 3.586v10.08h-2.682V97.835zM335.102 92.344h3.393l4.008 11.339a78.172 78.172 0 0 1 1.42 4.426h.131c.482-1.584.873-2.94 1.387-4.426l4.008-11.339h3.393v21.192h-2.553v-11.693c0-1.874.225-4.491.387-6.333h-.129l-1.646 4.942-3.973 10.951h-1.973l-3.941-10.951-1.68-4.942h-.131c.162 1.842.391 4.459.391 6.333v11.693h-2.49V92.344zM364.418 92.86c0-1.034.744-1.745 1.775-1.745 1.035 0 1.779.711 1.779 1.745 0 1.065-.744 1.744-1.779 1.744-1.031 0-1.775-.678-1.775-1.744zm.42 4.975h2.68v15.701h-2.68V97.835zM379.285 97.835h2.197l.225 2.262h.1c1.484-1.486 3.1-2.649 5.266-2.649 3.326 0 4.813 2.134 4.813 6.139v9.95h-2.682v-9.595c0-2.94-.904-4.167-2.973-4.167-1.582 0-2.713.808-4.266 2.39v11.372h-2.68V97.835zM402.295 105.718c0-5.104 3.23-8.271 6.816-8.271 1.811 0 3.006.68 4.395 1.81l-.129-2.681v-6.043h2.682v23.003h-2.197l-.227-1.842h-.096c-1.229 1.195-2.908 2.229-4.748 2.229-3.941.001-6.496-2.971-6.496-8.205zm11.082 3.811v-8.204c-1.324-1.197-2.52-1.616-3.813-1.616-2.486 0-4.49 2.391-4.49 5.977 0 3.748 1.551 5.978 4.297 5.978 1.453-.001 2.713-.712 4.006-2.135zM427.926 111.889c0-1.229.871-2.067 1.938-2.067s1.938.839 1.938 2.067c0 1.194-.871 2.035-1.938 2.035s-1.938-.841-1.938-2.035zm.644-16.96-.063-3.037h2.713l-.064 3.037-.389 12.18h-1.842l-.355-12.18z"/></g></svg>