<svg width="40" height="40" fill="none" xmlns="http://www.w3.org/2000/svg"><path d="M8.889 3.333A5.556 5.556 0 0 0 3.333 8.89V31.11a5.556 5.556 0 0 0 5.556 5.556H31.11a5.556 5.556 0 0 0 5.556-5.556V8.889a5.556 5.556 0 0 0-5.556-5.556H8.89ZM20 9.583c6.51 0 11.804 4.245 11.804 9.463 0 2.089-.82 3.97-2.532 5.823-2.477 2.817-8.015 6.247-9.274 6.771-1.26.524-1.073-.335-1.022-.63l.168-.998c.04-.297.082-.759-.037-1.053-.133-.324-.656-.494-1.04-.576-5.674-.74-9.874-4.659-9.874-9.337 0-5.218 5.298-9.463 11.807-9.463Zm-6.967 6.71a.616.616 0 0 0-.619.612v4.634c0 .339.277.612.619.612h2.345a.616.616 0 0 0 .618-.613.615.615 0 0 0-.618-.61h-1.727v-4.023a.615.615 0 0 0-.618-.612Zm4.152 0a.616.616 0 0 0-.619.612v4.634c0 .339.277.612.619.612.341 0 .62-.275.62-.612v-4.634a.617.617 0 0 0-.62-.612Zm2.129 0a.614.614 0 0 0-.621.612v4.634c0 .339.279.612.62.612.342 0 .62-.275.62-.612v-2.867l2.403 3.234a.626.626 0 0 0 .692.213.608.608 0 0 0 .423-.58v-4.634a.616.616 0 0 0-.619-.612.617.617 0 0 0-.62.612v2.867L19.81 16.54a.624.624 0 0 0-.494-.246Zm5.587.001a.616.616 0 0 0-.619.612v4.633c0 .339.278.612.619.612h2.345c.342 0 .62-.275.62-.612a.616.616 0 0 0-.62-.61H25.52v-1.095h1.727c.342 0 .62-.274.62-.611a.616.616 0 0 0-.62-.612l-1.727.001v-1.094h1.727c.342 0 .62-.275.62-.612a.617.617 0 0 0-.62-.612h-2.345Z" fill="#584024"/></svg>