<svg width="24"
		 height="24"
		 fill="none"
		 xmlns="http://www.w3.org/2000/svg">
	<path fill-rule="evenodd"
				clip-rule="evenodd"
				d="M1 4a1 1 0 0 1 1-1h17.995a1 1 0 0 1 1 1v9.06H13.17a1 1 0 0 0-1 1v2.353H5.002l-3.995 3.183V15.53A1.012 1.012 0 0 1 1 15.413V4Zm4.995 4.494a1.5 1.5 0 1 0 0 3 1.5 1.5 0 0 0 0-3Zm5 0a1.5 1.5 0 1 0 0 3 1.5 1.5 0 0 0 0-3Zm5 0a1.5 1.5 0 1 0 0 3 1.5 1.5 0 0 0 0-3Z"
				fill="#FFF7F0" />
	<path d="M22.106 15.216a1 1 0 0 0-1-1h-6.89a1 1 0 0 0-1 1v4.667a1 1 0 0 0 1 1h6.223l1.667 1.11v-6.777Z"
				fill="#FFF7F0" />
</svg>
