<svg width="24"
		 height="24"
		 fill="none"
		 xmlns="http://www.w3.org/2000/svg">
	<path fill-rule="evenodd"
				clip-rule="evenodd"
				d="M5 2a3 3 0 0 0-3 3v14a3 3 0 0 0 3 3h14a3 3 0 0 0 3-3V5a3 3 0 0 0-3-3H5Zm7.042 5.758c.968-.024 1.764-.886 1.755-1.897-.01-1.012-.82-1.856-1.79-1.861-.966-.005-1.785.832-1.804 1.844-.019 1.052.835 1.94 1.84 1.914Zm-2.832 2.71c.308.021.62.041.938.065l.023.23c.012.12.021.209.021.297l-.001 1.949c-.003 1.898-.006 3.796.033 5.694v.012c.007.338.02.977.612.977.465 0 .523-.47.564-.807.006-.042.01-.082.016-.118.046-.316.115-.86.19-1.451.136-1.078.292-2.311.369-2.6.463.21 1.554.824 1.677.97-.361.264-.668.499-1 .754l-.16.122-.01.008c-.245.187-.632.482-.383.916.291.508 1.389-.052 1.659-.19l.016-.008.17-.087c1.098-.557 1.603-.813 1.673-1.158.06-.294-.196-.653-.67-1.317-.115-.16-.241-.336-.379-.534-.812-1.167-.853-2.328-.684-3.648.31-.024.617-.044.921-.065.78-.052 1.543-.103 2.299-.21.318-.044.896-.135.896-.59 0-.55-.627-.621-.944-.626a371.26 371.26 0 0 0-10.113 0c-.317.005-.943.05-.943.627 0 .51.416.543.737.567.058.005.112.009.16.016.757.104 1.521.154 2.313.206Z"
				fill="#fff7f0" />
</svg>
