<svg width="24"
		 height="24"
		 fill="none"
		 xmlns="http://www.w3.org/2000/svg">
	<path fill-rule="evenodd"
				clip-rule="evenodd"
				d="M5 2a3 3 0 0 0-3 3v14a3 3 0 0 0 3 3h14a3 3 0 0 0 3-3V5a3 3 0 0 0-3-3H5Zm9.133 5.102a2.102 2.102 0 1 1-4.204 0 2.102 2.102 0 0 1 4.204 0ZM8.059 19.538c.055.025.109.05.162.079H9.7c-.732-.763-.565-1.71-.144-2.21.273-.323.613-.517 1.038-.527.491-.012.984-.01 1.476-.002.28.005.514.124.76.371h-.57c-.49-.001-.956-.002-1.421.002a1.92 1.92 0 0 0-.486.047c-.456.124-.776.556-.81 1.058-.033.494.255.977.698 1.167.05.022.102.043.153.064l.072.03h5.204l.012-.013c.008-.01.017-.02.028-.022 1.166-.3 1.287-1.583.561-2.274-.39-.372-.762-.764-1.133-1.157-.332-.35-.663-.701-1.008-1.037-.276-.267-.289-.56-.305-.912l-.002-.045.099.067c.058.04.107.072.155.107l.414.3c.637.463 1.274.925 1.91 1.39.277.203.574.327.92.224.35-.105.58-.339.655-.702.083-.398-.054-.723-.375-.96-.322-.237-.645-.472-.968-.706-.437-.317-.875-.635-1.308-.958a1.033 1.033 0 0 1-.308-.396 44.008 44.008 0 0 1-.602-1.45l-.056-.14c-.185-.46-.521-.684-1.015-.682-.895.002-1.79.003-2.684 0-.494-.002-.833.217-1.017.678-.05.123-.102.245-.155.368a7.455 7.455 0 0 0-.283.722c-.169.538-.486.924-.96 1.232-.491.318-.96.67-1.429 1.02-.137.103-.275.207-.414.309-.32.238-.46.56-.38.96.075.363.303.597.653.703.346.106.643-.017.92-.22l2.01-1.461.315-.229c.051-.037.104-.073.162-.112l.09-.061c.021.433-.078.756-.39 1.051-.636.603-1.246 1.233-1.856 1.863l-.323.334c-.575.593-.523 1.447.119 1.941.1.078.22.133.337.189Z"
				fill="#fff7f0" />
</svg>
